<svg version="1.1" xmlns="http://www.w3.org/2000/svg" viewBox="0 0 2190.518005371093 1358.944091796875" width="2190.518005371093" height="1358.944091796875">
  <!-- svg-source:excalidraw -->
  
  <defs>
    <style class="style-fonts">
      @font-face {
        font-family: "Virgil";
        src: url("https://excalidraw.com/Virgil.woff2");
      }
      @font-face {
        font-family: "Cascadia";
        src: url("https://excalidraw.com/Cascadia.woff2");
      }
      @font-face {
        font-family: "Assistant";
        src: url("https://excalidraw.com/Assistant-Regular.woff2");
      }
    </style>
    
  </defs>
  <rect x="0" y="0" width="2190.518005371093" height="1358.944091796875" fill="#ffffff"></rect><g stroke-linecap="round" transform="translate(10 270.8148701985684) rotate(0 127.77776082356763 80.55557250976562)"><path d="M0 0 C87.82 1.61, 174.7 1.33, 255.56 0 M0 0 C85.57 -0.11, 170.4 0.18, 255.56 0 M255.56 0 C254.4 35.27, 253.66 70.18, 255.56 161.11 M255.56 0 C253.93 34.17, 254.43 67.86, 255.56 161.11 M255.56 161.11 C160.03 161.07, 61.56 160.12, 0 161.11 M255.56 161.11 C170.65 158.67, 85.82 159.21, 0 161.11 M0 161.11 C1.96 119.7, 0.18 76.83, 0 0 M0 161.11 C-1.58 98.95, -0.41 38.65, 0 0" stroke="#1e1e1e" stroke-width="1" fill="none"></path></g><g transform="translate(76.6668701171875 324.5183817545584) rotate(0 59.98184453894078 27.129669189453125)"><text x="0" y="0" font-family="Virgil, Segoe UI Emoji" font-size="43.40747070312504px" fill="#1e1e1e" text-anchor="start" style="white-space: pre;" direction="ltr" dominant-baseline="text-before-edge">Kunde</text></g><g stroke-linecap="round" transform="translate(721.2590128580723 215.92561848958314) rotate(0 142.9627685546875 134.5)"><path d="M97 6.72 C110.32 0.48, 128.94 0.1, 144.45 0.34 C159.95 0.58, 175.36 3.38, 190.01 8.16 C204.65 12.93, 220.06 20.08, 232.33 29 C244.61 37.92, 255.46 49.59, 263.66 61.7 C271.85 73.8, 277.9 87.51, 281.5 101.61 C285.09 115.72, 286.56 131.86, 285.24 146.31 C283.92 160.76, 279.98 174.88, 273.57 188.3 C267.17 201.72, 257.41 216.11, 246.78 226.86 C236.15 237.6, 223.23 245.9, 209.78 252.79 C196.32 259.67, 181.27 265.81, 166.05 268.16 C150.82 270.51, 133.64 269.55, 118.43 266.89 C103.22 264.22, 88.41 259.19, 74.79 252.19 C61.18 245.19, 47.32 235.5, 36.73 224.87 C26.13 214.24, 17.43 201.74, 11.22 188.42 C5 175.1, 0.53 159.67, -0.56 144.95 C-1.65 130.24, 0.69 114.14, 4.69 100.12 C8.69 86.09, 14.94 72.83, 23.43 60.8 C31.92 48.77, 41.72 37.43, 55.62 27.93 C69.51 18.43, 96.92 7.69, 106.79 3.8 C116.67 -0.08, 114.31 2.34, 114.86 4.62 M153.72 1 C168.4 -0.28, 183.7 5.09, 197.87 10.5 C212.05 15.9, 226.87 23.82, 238.77 33.44 C250.67 43.07, 261.6 55.56, 269.27 68.23 C276.94 80.91, 282.06 94.81, 284.77 109.49 C287.48 124.17, 288.28 141.55, 285.51 156.31 C282.75 171.08, 275.8 185.5, 268.18 198.08 C260.56 210.67, 250.65 222, 239.79 231.82 C228.93 241.64, 216.7 250.84, 203.02 257 C189.34 263.17, 173.23 267.52, 157.7 268.82 C142.18 270.11, 124.97 268.46, 109.87 264.76 C94.77 261.06, 80.01 254.45, 67.09 246.61 C54.17 238.77, 42.12 229.05, 32.35 217.72 C22.58 206.4, 13.68 192.25, 8.49 178.65 C3.29 165.05, 1.16 150.49, 1.17 136.12 C1.19 121.75, 4.16 106.07, 8.58 92.41 C13.01 78.75, 18.75 65.95, 27.72 54.17 C36.69 42.4, 49.36 30.1, 62.41 21.74 C75.46 13.38, 90.95 7.81, 105.99 4 C121.03 0.18, 144.92 -1.1, 152.63 -1.16 C160.35 -1.21, 152.65 1.19, 152.31 3.66" stroke="#1e1e1e" stroke-width="1" fill="none"></path></g><g transform="translate(769.9918694384669 305.3197564199925) rotate(0 94.13996887207031 45)"><text x="94.13996887207031" y="0" font-family="Virgil, Segoe UI Emoji" font-size="36px" fill="#1e1e1e" text-anchor="middle" style="white-space: pre;" direction="ltr" dominant-baseline="text-before-edge">Dow Jones</text><text x="94.13996887207031" y="45" font-family="Virgil, Segoe UI Emoji" font-size="36px" fill="#1e1e1e" text-anchor="middle" style="white-space: pre;" direction="ltr" dominant-baseline="text-before-edge">Vorhersage</text></g><g mask="url(#mask-YP5MxA4vazOdJ4rYcvUse)" stroke-linecap="round"><g transform="translate(271.33306884765534 342.20191774599846) rotate(0 217.7657287702648 -0.32778588222265626)"><path d="M0 0 C172.98 0.88, 344.85 -0.19, 435.53 -0.66 M0 0 C170.92 0.29, 342.18 -0.33, 435.53 -0.66" stroke="#f08c00" stroke-width="1" fill="none"></path></g><g transform="translate(271.33306884765534 342.20191774599846) rotate(0 217.7657287702648 -0.32778588222265626)"><path d="M412.07 7.97 C422.28 6.12, 430.24 1.09, 435.53 -0.66 M412.07 7.97 C420.98 5.57, 430.55 1.47, 435.53 -0.66" stroke="#f08c00" stroke-width="1" fill="none"></path></g><g transform="translate(271.33306884765534 342.20191774599846) rotate(0 217.7657287702648 -0.32778588222265626)"><path d="M412.01 -9.13 C422.17 -4.21, 430.15 -2.46, 435.53 -0.66 M412.01 -9.13 C420.93 -4.82, 430.52 -2.2, 435.53 -0.66" stroke="#f08c00" stroke-width="1" fill="none"></path></g></g><mask id="mask-YP5MxA4vazOdJ4rYcvUse"><rect x="0" y="0" fill="#fff" width="806.8645263881849" height="442.85748951044377"></rect><rect x="484.22171564949394" y="319.3741318637758" fill="#000" width="9.754163936853026" height="45" opacity="1"></rect></mask><g transform="translate(484.22171564949394 319.3741318637758) rotate(0 4.877081968426182 22.668950698610843)"><text x="4.877081968426513" y="0" font-family="Virgil, Segoe UI Emoji" font-size="36px" fill="#f08c00" text-anchor="middle" style="white-space: pre;" direction="ltr" dominant-baseline="text-before-edge">1</text></g><g mask="url(#mask-D9IBCZDBdVqtOZCaqdVEv)" stroke-linecap="round"><g transform="translate(732.8781155531778 257.2439946653443) rotate(0 -226.32806534494875 -3.022070837219303)"><path d="M-0.37 -0.47 C-42.21 -6.47, -175.64 -41.87, -251.15 -36.39 C-326.65 -30.9, -419.69 21.12, -453.39 32.42 M1.63 -1.77 C-39.8 -8.04, -173.39 -43.34, -248.81 -37.94 C-324.23 -32.55, -416.77 18.85, -450.88 30.6" stroke="#2f9e44" stroke-width="1" fill="none"></path></g><g transform="translate(732.8781155531778 257.2439946653443) rotate(0 -226.32806534494875 -3.022070837219303)"><path d="M-432.63 13.51 C-438.78 17.23, -441.49 22.15, -450.88 30.6 M-432.63 13.51 C-438.81 20.59, -446.31 25.9, -450.88 30.6" stroke="#2f9e44" stroke-width="1" fill="none"></path></g><g transform="translate(732.8781155531778 257.2439946653443) rotate(0 -226.32806534494875 -3.022070837219303)"><path d="M-425.92 29.24 C-433.96 28.37, -438.62 28.73, -450.88 30.6 M-425.92 29.24 C-434.57 30.29, -444.65 29.58, -450.88 30.6" stroke="#2f9e44" stroke-width="1" fill="none"></path></g></g><mask id="mask-D9IBCZDBdVqtOZCaqdVEv"><rect x="0" y="0" fill="#fff" width="1285.5342462430751" height="426.1329106809693"></rect><rect x="469.63055637697016" y="197.2774658203125" fill="#000" width="25.6271929101208" height="45" opacity="1"></rect></mask><g transform="translate(469.63055637697016 197.2774658203125) rotate(0 37.36939321453019 56.925218334429246)"><text x="12.8135964550604" y="0" font-family="Virgil, Segoe UI Emoji" font-size="36px" fill="#2f9e44" text-anchor="middle" style="white-space: pre;" direction="ltr" dominant-baseline="text-before-edge">2</text></g><g mask="url(#mask-9X4l5GpcvrprDTmNVGUDq)" stroke-linecap="round"><g transform="translate(734.4474752562796 435.7226925335649) rotate(0 -230.44611921993715 10.72146029846624)"><path d="M-0.1 0.44 C-44.07 7.32, -186.2 45.34, -262.91 41.68 C-339.62 38.03, -427.38 -11.24, -460.35 -21.49 M-1.62 -0.38 C-45.81 6.65, -187.22 46.54, -263.75 43.14 C-340.29 39.75, -428.05 -9.88, -460.83 -20.74" stroke="#e03131" stroke-width="1" fill="none"></path></g><g transform="translate(734.4474752562796 435.7226925335649) rotate(0 -230.44611921993715 10.72146029846624)"><path d="M-435.86 -19.49 C-444.5 -19.65, -454.86 -19.55, -460.83 -20.74 M-435.86 -19.49 C-441.82 -20.46, -446.38 -20.04, -460.83 -20.74" stroke="#e03131" stroke-width="1" fill="none"></path></g><g transform="translate(734.4474752562796 435.7226925335649) rotate(0 -230.44611921993715 10.72146029846624)"><path d="M-442.5 -3.74 C-448.71 -9.8, -456.57 -15.61, -460.83 -20.74 M-442.5 -3.74 C-447.1 -8.03, -450.28 -10.89, -460.83 -20.74" stroke="#e03131" stroke-width="1" fill="none"></path></g></g><mask id="mask-9X4l5GpcvrprDTmNVGUDq"><rect x="0" y="0" fill="#fff" width="1295.3397136961537" height="597.9449825726274"></rect><rect x="459.07737045869317" y="455.0552978515624" fill="#000" width="24.511396777923913" height="45" opacity="1"></rect></mask><g transform="translate(459.07737045869317 455.0552978515625) rotate(0 44.90427335849495 -8.402523874957922)"><text x="12.255698388961957" y="0" font-family="Virgil, Segoe UI Emoji" font-size="36px" fill="#e03131" text-anchor="middle" style="white-space: pre;" direction="ltr" dominant-baseline="text-before-edge">3</text></g><g stroke-linecap="round" transform="translate(1174.8144022623694 281.37030029296966) rotate(0 127.77776082356763 80.55557250976562)"><path d="M0 0 C90.78 1.08, 176.93 1.8, 255.56 0 M0 0 C67.83 -0.53, 135.5 -0.48, 255.56 0 M255.56 0 C255.02 61.28, 255.85 119.18, 255.56 161.11 M255.56 0 C253.61 34.43, 253.92 70.07, 255.56 161.11 M255.56 161.11 C191.4 160.27, 128.09 159.6, 0 161.11 M255.56 161.11 C183.23 161.33, 110.46 162.01, 0 161.11 M0 161.11 C3.32 118.53, 3.34 77.43, 0 0 M0 161.11 C0.03 105.96, 1.52 52.23, 0 0" stroke="#1e1e1e" stroke-width="1" fill="none"></path></g><g transform="translate(1241.481272379557 335.0738118489596) rotate(0 59.98184453894066 27.129669189453125)"><text x="0" y="0" font-family="Virgil, Segoe UI Emoji" font-size="43.40747070312504px" fill="#1e1e1e" text-anchor="start" style="white-space: pre;" direction="ltr" dominant-baseline="text-before-edge">Kunde</text></g><g stroke-linecap="round" transform="translate(1894.5924682617178 273.3331502278645) rotate(0 129.6295166015625 90.74066162109375)"><path d="M187.7 9.24 C201.96 12.8, 215.88 22.25, 226.23 30.38 C236.59 38.52, 244.36 47.99, 249.83 58.08 C255.31 68.17, 258.98 79.89, 259.09 90.9 C259.2 101.92, 256.21 114.02, 250.48 124.17 C244.76 134.31, 235.17 143.95, 224.74 151.79 C214.31 159.63, 201.85 166.32, 187.92 171.2 C173.99 176.09, 156.95 179.95, 141.17 181.11 C125.39 182.27, 108.12 181.29, 93.24 178.18 C78.35 175.07, 64.05 169.21, 51.87 162.45 C39.69 155.68, 28.47 146.68, 20.15 137.58 C11.84 128.48, 4.89 118.45, 1.97 107.85 C-0.95 97.26, -0.17 85, 2.62 74.02 C5.41 63.04, 10.58 51.24, 18.72 41.98 C26.85 32.73, 38.72 24.85, 51.44 18.5 C64.15 12.15, 79.83 7, 95.02 3.88 C110.21 0.77, 126.48 -1.54, 142.59 -0.17 C158.7 1.21, 182.9 9.52, 191.68 12.11 C200.47 14.7, 196.35 14.08, 195.29 15.36 M139.45 0.35 C154.21 0, 169.36 5.56, 183.26 10.01 C197.17 14.46, 211.87 19.21, 222.87 27.05 C233.88 34.9, 243.34 46.79, 249.29 57.08 C255.25 67.37, 258.01 77.99, 258.61 88.77 C259.21 99.55, 258.11 111.38, 252.88 121.75 C247.65 132.12, 237.53 142.82, 227.24 150.99 C216.95 159.15, 204.7 165.93, 191.15 170.75 C177.6 175.57, 161.72 178.43, 145.94 179.93 C130.16 181.43, 111.59 182.45, 96.49 179.77 C81.39 177.09, 67.89 170.58, 55.36 163.86 C42.83 157.14, 30.3 148.26, 21.34 139.44 C12.37 130.61, 4.72 121.36, 1.56 110.94 C-1.61 100.51, -0.53 87.68, 2.34 76.9 C5.21 66.12, 10.81 55.73, 18.78 46.24 C26.74 36.74, 38.25 26.92, 50.12 19.93 C62 12.94, 75.13 7.81, 90.02 4.31 C104.91 0.81, 131.27 -0.45, 139.48 -1.08 C147.69 -1.71, 139.52 -1.03, 139.28 0.53" stroke="#1e1e1e" stroke-width="1" fill="none"></path></g><g transform="translate(1944.3921058823814 318.91047468732893) rotate(0 79.66796875 45)"><text x="79.66796875" y="0" font-family="Virgil, Segoe UI Emoji" font-size="36px" fill="#1e1e1e" text-anchor="middle" style="white-space: pre;" direction="ltr" dominant-baseline="text-before-edge">Zeitraum</text><text x="79.66796875" y="45" font-family="Virgil, Segoe UI Emoji" font-size="36px" fill="#1e1e1e" text-anchor="middle" style="white-space: pre;" direction="ltr" dominant-baseline="text-before-edge">ändern</text></g><g mask="url(#mask-p2gzpX4TmQus1kxlvoNng)" stroke-linecap="round"><g transform="translate(1444.6660766601553 355.3330078125001) rotate(0 217.7951321160332 -2.2224067815969875)"><path d="M0 0 C125.89 -3.57, 249.37 -4.12, 435.59 -4.44 M0 0 C141.37 0.35, 283 -1.9, 435.59 -4.44" stroke="#f08c00" stroke-width="1" fill="none"></path></g><g transform="translate(1444.6660766601553 355.3330078125001) rotate(0 217.7951321160332 -2.2224067815969875)"><path d="M412.24 4.48 C420.47 0.01, 423.95 -1.12, 435.59 -4.44 M412.24 4.48 C419.17 2.61, 426.62 -1.88, 435.59 -4.44" stroke="#f08c00" stroke-width="1" fill="none"></path></g><g transform="translate(1444.6660766601553 355.3330078125001) rotate(0 217.7951321160332 -2.2224067815969875)"><path d="M411.96 -12.62 C420.34 -12.18, 423.9 -8.4, 435.59 -4.44 M411.96 -12.62 C419.01 -8.93, 426.55 -7.86, 435.59 -4.44" stroke="#f08c00" stroke-width="1" fill="none"></path></g></g><mask id="mask-p2gzpX4TmQus1kxlvoNng"><rect x="0" y="0" fill="#fff" width="1980.2563408922217" height="459.7778213756941"></rect><rect x="1650.9433729367706" y="330.6106010309031" fill="#000" width="23.035671678835396" height="45" opacity="1"></rect></mask><g transform="translate(1650.9433729367706 330.610601030903) rotate(0 11.517835839417899 22.518230608197143)"><text x="11.517835839417698" y="0" font-family="Virgil, Segoe UI Emoji" font-size="36px" fill="#f08c00" text-anchor="middle" style="white-space: pre;" direction="ltr" dominant-baseline="text-before-edge">4</text></g><g mask="url(#mask-C6qK0dC7xOYwm-mrz6h4A)" stroke-linecap="round"><g transform="translate(1929.5104935863264 288.76163915605196) rotate(0 -241.31112447871055 -32.317486324020706)"><path d="M0.52 -0.07 C-46.55 -11.19, -201.05 -67.51, -281.39 -67.16 C-361.72 -66.81, -447.77 -9.36, -481.48 2.03 M-0.66 -1.16 C-47.46 -12.07, -199.03 -66.57, -279.19 -65.83 C-359.35 -65.08, -447.53 -7.98, -481.64 3.29" stroke="#2f9e44" stroke-width="1" fill="none"></path></g><g transform="translate(1929.5104935863264 288.76163915605196) rotate(0 -241.31112447871055 -32.317486324020706)"><path d="M-463.77 -14.19 C-470.88 -8.98, -478.34 1.34, -481.64 3.29 M-463.77 -14.19 C-468.13 -8.36, -473.72 -4.97, -481.64 3.29" stroke="#2f9e44" stroke-width="1" fill="none"></path></g><g transform="translate(1929.5104935863264 288.76163915605196) rotate(0 -241.31112447871055 -32.317486324020706)"><path d="M-456.72 1.39 C-466.5 0.59, -476.69 4.88, -481.64 3.29 M-456.72 1.39 C-463 2.61, -470.65 1.47, -481.64 3.29" stroke="#2f9e44" stroke-width="1" fill="none"></path></g></g><mask id="mask-C6qK0dC7xOYwm-mrz6h4A"><rect x="0" y="0" fill="#fff" width="2512.1327425437476" height="457.65043310136446"></rect><rect x="1637.9885058817442" y="199.499755859375" fill="#000" width="22.243813431822396" height="45" opacity="1"></rect></mask><g transform="translate(1637.9885058817442 199.499755859375) rotate(0 50.96173591498473 57.32908600166735)"><text x="11.121906715911198" y="0" font-family="Virgil, Segoe UI Emoji" font-size="36px" fill="#2f9e44" text-anchor="middle" style="white-space: pre;" direction="ltr" dominant-baseline="text-before-edge">5</text></g><g mask="url(#mask-5SsHisIIAQCgCv7mtxZHB)" stroke-linecap="round"><g transform="translate(1914.0271871953623 430.79411085754043) rotate(0 -234.6805552676035 24.53889695495957)"><path d="M0.59 -1.07 C-43.82 8.02, -189.09 54.61, -267.47 54.19 C-345.85 53.77, -436.18 6.02, -469.71 -3.6 M-0.56 0.98 C-45.07 9.77, -190.24 53.56, -268.59 52.47 C-346.94 51.38, -437.42 4.14, -470.66 -5.56" stroke="#e03131" stroke-width="1" fill="none"></path></g><g transform="translate(1914.0271871953623 430.79411085754043) rotate(0 -234.6805552676035 24.53889695495957)"><path d="M-445.66 -5.17 C-452.83 -5.68, -455.15 -5.79, -470.66 -5.56 M-445.66 -5.17 C-453.75 -5.34, -463.55 -5.26, -470.66 -5.56" stroke="#e03131" stroke-width="1" fill="none"></path></g><g transform="translate(1914.0271871953623 430.79411085754043) rotate(0 -234.6805552676035 24.53889695495957)"><path d="M-451.76 10.81 C-457.57 6.83, -458.57 3.28, -470.66 -5.56 M-451.76 10.81 C-457.73 4.82, -465.33 -0.89, -470.66 -5.56" stroke="#e03131" stroke-width="1" fill="none"></path></g></g><mask id="mask-5SsHisIIAQCgCv7mtxZHB"><rect x="0" y="0" fill="#fff" width="2483.3882977305693" height="588.5719428887904"></rect><rect x="1635.3704087894876" y="461.721923828125" fill="#000" width="23.035671678835396" height="45" opacity="1"></rect></mask><g transform="translate(1635.3704087894876 461.7219238281249) rotate(0 43.62179294891496 -6.6087236085785435)"><text x="11.517835839417698" y="0" font-family="Virgil, Segoe UI Emoji" font-size="36px" fill="#e03131" text-anchor="middle" style="white-space: pre;" direction="ltr" dominant-baseline="text-before-edge">6</text></g><g stroke-linecap="round" transform="translate(18.147572835286155 713.592610677084) rotate(0 127.77776082356763 80.55557250976562)"><path d="M0 0 C95.92 -1.28, 189.02 -2.26, 255.56 0 M0 0 C96.11 -0.32, 194.26 -0.45, 255.56 0 M255.56 0 C253.64 33.8, 254.31 68.61, 255.56 161.11 M255.56 0 C254.33 44.59, 254.96 88.1, 255.56 161.11 M255.56 161.11 C202.33 159.46, 149.53 162.41, 0 161.11 M255.56 161.11 C201.08 158.82, 145.48 158.66, 0 161.11 M0 161.11 C-1.82 124.6, -2.81 88.32, 0 0 M0 161.11 C1.3 123.37, 0.67 86.42, 0 0" stroke="#1e1e1e" stroke-width="1" fill="none"></path></g><g transform="translate(84.8144429524732 767.296122233074) rotate(0 59.98184453894078 27.129669189453125)"><text x="0" y="0" font-family="Virgil, Segoe UI Emoji" font-size="43.40747070312504px" fill="#1e1e1e" text-anchor="start" style="white-space: pre;" direction="ltr" dominant-baseline="text-before-edge">Kunde</text></g><g stroke-linecap="round" transform="translate(713.1106567382794 693.3330281575512) rotate(0 148.14798990885447 114.81475830078125)"><path d="M146.48 0.52 C161.45 -1.37, 178.74 1.74, 193.98 5.41 C209.22 9.08, 224.99 14.89, 237.9 22.54 C250.81 30.2, 262.67 40.75, 271.46 51.35 C280.25 61.96, 286.74 74.26, 290.66 86.18 C294.58 98.09, 295.94 110.49, 294.98 122.83 C294.02 135.17, 291.03 148.86, 284.89 160.22 C278.75 171.57, 269.14 181.81, 258.17 190.97 C247.2 200.12, 233.05 208.83, 219.07 215.12 C205.08 221.41, 189.82 226.36, 174.27 228.71 C158.72 231.07, 141.72 231.36, 125.75 229.25 C109.79 227.15, 92.58 222.03, 78.49 216.11 C64.39 210.18, 51.92 202.79, 41.17 193.71 C30.42 184.64, 20.61 173, 13.97 161.66 C7.33 150.32, 3.01 138.04, 1.34 125.66 C-0.33 113.27, 0.2 99.44, 3.97 87.35 C7.73 75.27, 15.42 63.38, 23.94 53.14 C32.45 42.91, 42.65 33.8, 55.04 25.94 C67.44 18.09, 81.32 10.17, 98.28 6 C115.25 1.84, 145.48 1.42, 156.81 0.98 C168.14 0.55, 166.28 1.57, 166.28 3.38 M133.33 1.76 C147.97 -1.48, 165.43 -0.52, 181.26 2.35 C197.1 5.22, 214.72 12.21, 228.34 18.99 C241.96 25.78, 253.27 33.81, 262.97 43.06 C272.67 52.32, 280.75 62.75, 286.53 74.52 C292.31 86.28, 297.1 100.84, 297.62 113.64 C298.15 126.44, 294.63 139.45, 289.67 151.34 C284.72 163.23, 277.58 175.41, 267.87 184.98 C258.16 194.56, 244.88 201.86, 231.41 208.81 C217.94 215.76, 202.77 223.1, 187.04 226.7 C171.31 230.29, 153.29 231.32, 137.01 230.41 C120.72 229.49, 104.07 226.3, 89.34 221.2 C74.6 216.09, 60.13 208.38, 48.6 199.79 C37.08 191.2, 28.1 180.33, 20.19 169.67 C12.28 159, 4.07 147.63, 1.15 135.79 C-1.77 123.95, -0.01 110.98, 2.66 98.64 C5.33 86.31, 9.74 72.92, 17.16 61.77 C24.58 50.62, 35.41 40.25, 47.18 31.72 C58.96 23.19, 73.2 15.53, 87.83 10.57 C102.47 5.62, 127.17 3.14, 134.98 1.99 C142.79 0.83, 134.65 1.98, 134.7 3.66" stroke="#1e1e1e" stroke-width="1" fill="none"></path></g><g transform="translate(762.1242457877429 762.9614922835557) rotate(0 99.3779525756836 45)"><text x="99.3779525756836" y="0" font-family="Virgil, Segoe UI Emoji" font-size="36px" fill="#1e1e1e" text-anchor="middle" style="white-space: pre;" direction="ltr" dominant-baseline="text-before-edge">Newsartikel</text><text x="99.3779525756836" y="45" font-family="Virgil, Segoe UI Emoji" font-size="36px" fill="#1e1e1e" text-anchor="middle" style="white-space: pre;" direction="ltr" dominant-baseline="text-before-edge">anzeigen</text></g><g mask="url(#mask-kx4kbiT4L9bzyOE75Btu5)" stroke-linecap="round"><g transform="translate(286.88836669921784 795.3330078124997) rotate(0 204.44692806721787 2.222316888351884)"><path d="M0 0 C105.71 -1.85, 210.48 -0.08, 408.89 4.44 M0 0 C106.27 -1.19, 212.84 0.28, 408.89 4.44" stroke="#f08c00" stroke-width="1" fill="none"></path></g><g transform="translate(286.88836669921784 795.3330078124997) rotate(0 204.44692806721787 2.222316888351884)"><path d="M385.24 12.53 C391.55 8.71, 396.06 7.75, 408.89 4.44 M385.24 12.53 C391.16 9.53, 397.75 7.98, 408.89 4.44" stroke="#f08c00" stroke-width="1" fill="none"></path></g><g transform="translate(286.88836669921784 795.3330078124997) rotate(0 204.44692806721787 2.222316888351884)"><path d="M385.57 -4.56 C391.69 -3.97, 396.11 -0.51, 408.89 4.44 M385.57 -4.56 C391.57 -3.12, 398.06 -0.22, 408.89 4.44" stroke="#f08c00" stroke-width="1" fill="none"></path></g></g><mask id="mask-kx4kbiT4L9bzyOE75Btu5"><rect x="0" y="0" fill="#fff" width="795.7822228336536" height="899.7776415892034"></rect><rect x="481.6531129929981" y="775.0553247008513" fill="#000" width="19.36436354687511" height="45" opacity="1"></rect></mask><g transform="translate(481.6531129929981 775.0553247008515) rotate(0 9.682181773437605 22.138289844138626)"><text x="9.682181773437556" y="0" font-family="Virgil, Segoe UI Emoji" font-size="36px" fill="#f08c00" text-anchor="middle" style="white-space: pre;" direction="ltr" dominant-baseline="text-before-edge">7</text></g><g mask="url(#mask-D3T9zwoJfh9hgIP8cXblo)" stroke-linecap="round"><g transform="translate(745.0109948777917 710.9676832856152) rotate(0 -226.83914612053695 -25.634614437959044)"><path d="M0.13 -0.68 C-45.3 -10.89, -196.43 -63.01, -271.89 -61.1 C-347.35 -59.19, -422.2 -1.33, -452.61 10.77 M-1.26 1.58 C-46.95 -8.95, -197.81 -64.33, -273.07 -62.6 C-348.33 -60.87, -422.58 -0.02, -452.82 11.95" stroke="#2f9e44" stroke-width="1" fill="none"></path></g><g transform="translate(745.0109948777917 710.9676832856152) rotate(0 -226.83914612053695 -25.634614437959044)"><path d="M-436.43 -6.92 C-443.4 -0.87, -446.14 8.38, -452.82 11.95 M-436.43 -6.92 C-441.28 -2.09, -445.67 4.54, -452.82 11.95" stroke="#2f9e44" stroke-width="1" fill="none"></path></g><g transform="translate(745.0109948777917 710.9676832856152) rotate(0 -226.83914612053695 -25.634614437959044)"><path d="M-428.13 8.03 C-438.1 8.73, -443.81 12.64, -452.82 11.95 M-428.13 8.03 C-435.21 8.74, -441.9 11.2, -452.82 11.95" stroke="#2f9e44" stroke-width="1" fill="none"></path></g></g><mask id="mask-D3T9zwoJfh9hgIP8cXblo"><rect x="0" y="0" fill="#fff" width="1298.6892871188659" height="884.3010573090527"></rect><rect x="459.7877001763345" y="626.1663818359375" fill="#000" width="27.534829139516415" height="45" opacity="1"></rect></mask><g transform="translate(459.7877001763345 626.1663818359375) rotate(0 58.876754946079245 59.4600923455497)"><text x="13.767414569758207" y="0" font-family="Virgil, Segoe UI Emoji" font-size="36px" fill="#2f9e44" text-anchor="middle" style="white-space: pre;" direction="ltr" dominant-baseline="text-before-edge">8</text></g><g mask="url(#mask-XnCXo79TWJgK5t0s3r_DG)" stroke-linecap="round"><g transform="translate(731.3803872047029 868.6577187899474) rotate(0 -223.3570942371175 20.008724081146283)"><path d="M0.1 -0.09 C-42.51 7.88, -180.9 47.72, -255.35 46.67 C-329.81 45.62, -414.62 2.35, -446.62 -6.4 M-1.31 -1.19 C-44.08 7.09, -181.84 48.83, -256.17 48.21 C-330.51 47.58, -415.46 4.41, -447.34 -4.94" stroke="#e03131" stroke-width="1" fill="none"></path></g><g transform="translate(731.3803872047029 868.6577187899474) rotate(0 -223.3570942371175 20.008724081146283)"><path d="M-422.34 -4.7 C-430.6 -4.34, -438.56 -4.68, -447.34 -4.94 M-422.34 -4.7 C-430.62 -5.45, -438.38 -4.87, -447.34 -4.94" stroke="#e03131" stroke-width="1" fill="none"></path></g><g transform="translate(731.3803872047029 868.6577187899474) rotate(0 -223.3570942371175 20.008724081146283)"><path d="M-428.34 11.31 C-434.5 6.47, -440.51 0.94, -447.34 -4.94 M-428.34 11.31 C-434.6 5.36, -440.44 0.79, -447.34 -4.94" stroke="#e03131" stroke-width="1" fill="none"></path></g></g><mask id="mask-XnCXo79TWJgK5t0s3r_DG"><rect x="0" y="0" fill="#fff" width="1278.094575678938" height="1021.9910928133849"></rect><rect x="464.8173449415235" y="892.8331298828125" fill="#000" width="21.919875546638504" height="45" opacity="1"></rect></mask><g transform="translate(464.8173449415235 892.8331298828125) rotate(0 42.942723547772175 -3.2653542079499402)"><text x="10.959937773319252" y="0" font-family="Virgil, Segoe UI Emoji" font-size="36px" fill="#e03131" text-anchor="middle" style="white-space: pre;" direction="ltr" dominant-baseline="text-before-edge">9</text></g><g stroke-linecap="round" transform="translate(1198.1483256022132 720.2590738932303) rotate(0 127.77776082356763 80.55557250976562)"><path d="M0 0 C75.24 0.05, 146.21 0.55, 255.56 0 M0 0 C64.88 0.66, 129.85 0.6, 255.56 0 M255.56 0 C256.25 37.73, 253.4 74.35, 255.56 161.11 M255.56 0 C254.15 47.51, 253.95 94.09, 255.56 161.11 M255.56 161.11 C202.73 159.49, 150.79 161.9, 0 161.11 M255.56 161.11 C178.87 161.57, 102.68 161.03, 0 161.11 M0 161.11 C-0.98 104.96, -2.26 45.24, 0 0 M0 161.11 C2.37 112.27, 1.22 65.09, 0 0" stroke="#1e1e1e" stroke-width="1" fill="none"></path></g><g transform="translate(1264.8151957194007 773.96258544922) rotate(0 59.98184453894066 27.129669189453125)"><text x="0" y="0" font-family="Virgil, Segoe UI Emoji" font-size="43.40747070312504px" fill="#1e1e1e" text-anchor="start" style="white-space: pre;" direction="ltr" dominant-baseline="text-before-edge">Kunde</text></g><g stroke-linecap="round" transform="translate(1921.2589721679678 708.1477254231767) rotate(0 129.6295166015625 102.5)"><path d="M84.61 6.75 C97.03 1.56, 114.86 0.24, 129.56 -0.04 C144.26 -0.33, 158.99 1.07, 172.82 5.07 C186.64 9.06, 200.89 16.2, 212.51 23.91 C224.13 31.63, 234.9 41.37, 242.51 51.34 C250.13 61.32, 255.77 72.19, 258.2 83.78 C260.63 95.36, 259.75 109.11, 257.11 120.86 C254.47 132.61, 249.73 144.17, 242.36 154.27 C235 164.37, 224.22 174.1, 212.92 181.47 C201.62 188.84, 188.43 194.47, 174.55 198.5 C160.67 202.54, 144.42 205.74, 129.64 205.68 C114.85 205.61, 99.5 202.2, 85.83 198.09 C72.17 193.97, 59.12 188.34, 47.64 181 C36.17 173.66, 24.45 164.18, 16.98 154.05 C9.52 143.93, 5.33 131.62, 2.84 120.26 C0.35 108.91, -0.36 97.4, 2.05 85.92 C4.47 74.44, 9.93 61.56, 17.33 51.38 C24.73 41.2, 33.28 32.7, 46.46 24.84 C59.63 16.97, 86.08 7.85, 96.38 4.2 C106.69 0.54, 107.59 1.25, 108.3 2.91 M102.24 3.45 C115.66 -0.1, 134.2 0.04, 149.2 1.74 C164.19 3.45, 179.16 8.19, 192.24 13.68 C205.31 19.17, 218.19 26.12, 227.65 34.66 C237.12 43.21, 243.61 54.34, 249.04 64.95 C254.47 75.55, 259.48 86.92, 260.26 98.31 C261.03 109.71, 258.43 122.18, 253.68 133.32 C248.93 144.46, 241.23 155.55, 231.76 165.16 C222.29 174.77, 209.76 184.88, 196.85 190.96 C183.95 197.04, 168.64 199.29, 154.33 201.61 C140.02 203.94, 125.23 206.34, 110.99 204.92 C96.76 203.5, 81.97 198.65, 68.92 193.11 C55.87 187.57, 42.64 180.28, 32.69 171.7 C22.74 163.12, 14.65 152.45, 9.23 141.64 C3.82 130.84, 0.39 118.61, 0.2 106.85 C0 95.08, 3.27 82.33, 8.04 71.05 C12.81 59.77, 19.88 48.66, 28.83 39.15 C37.78 29.64, 49.49 20.4, 61.74 14.01 C73.99 7.63, 95.13 2.49, 102.32 0.86 C109.51 -0.77, 104.05 2.48, 104.89 4.24" stroke="#1e1e1e" stroke-width="1" fill="none"></path></g><g transform="translate(1978.9606102158775 743.1692803515556) rotate(0 71.7659683227539 67.5)"><text x="71.7659683227539" y="0" font-family="Virgil, Segoe UI Emoji" font-size="36px" fill="#1e1e1e" text-anchor="middle" style="white-space: pre;" direction="ltr" dominant-baseline="text-before-edge">Index &amp;</text><text x="71.7659683227539" y="45" font-family="Virgil, Segoe UI Emoji" font-size="36px" fill="#1e1e1e" text-anchor="middle" style="white-space: pre;" direction="ltr" dominant-baseline="text-before-edge">Wert</text><text x="71.7659683227539" y="90" font-family="Virgil, Segoe UI Emoji" font-size="36px" fill="#1e1e1e" text-anchor="middle" style="white-space: pre;" direction="ltr" dominant-baseline="text-before-edge">anzeigen</text></g><g mask="url(#mask-zH5uEAmB4SRHGfAXnYOS1)" stroke-linecap="round"><g transform="translate(1469.1109008789053 815.3328857421874) rotate(0 216.66955743254834 2.22232135826016)"><path d="M0 0 C103.06 2.46, 207.12 2.82, 433.34 4.44 M0 0 C96.53 0.11, 192.66 0.66, 433.34 4.44" stroke="#f08c00" stroke-width="1" fill="none"></path></g><g transform="translate(1469.1109008789053 815.3328857421874) rotate(0 216.66955743254834 2.22232135826016)"><path d="M409.73 12.66 C413.7 12.34, 419.77 8.99, 433.34 4.44 M409.73 12.66 C415.28 10.98, 420.06 8.28, 433.34 4.44" stroke="#f08c00" stroke-width="1" fill="none"></path></g><g transform="translate(1469.1109008789053 815.3328857421874) rotate(0 216.66955743254834 2.22232135826016)"><path d="M409.97 -4.44 C414.05 -0.66, 420.06 0.09, 433.34 4.44 M409.97 -4.44 C415.52 -2.31, 420.24 -1.21, 433.34 4.44" stroke="#f08c00" stroke-width="1" fill="none"></path></g></g><mask id="mask-zH5uEAmB4SRHGfAXnYOS1"><rect x="0" y="0" fill="#fff" width="2002.450015744002" height="919.7775284587077"></rect><rect x="1668.521700093181" y="795.0552071004477" fill="#000" width="34.51751643654536" height="45" opacity="1"></rect></mask><g transform="translate(1668.521700093181 795.0552071004477) rotate(0 17.25875821827276 22.5)"><text x="17.25875821827268" y="0" font-family="Virgil, Segoe UI Emoji" font-size="36px" fill="#f08c00" text-anchor="middle" style="white-space: pre;" direction="ltr" dominant-baseline="text-before-edge">10</text></g><g mask="url(#mask-_RakQG85RnbBIDjLhdOKo)" stroke-linecap="round"><g transform="translate(1927.1159167495068 742.0586799687486) rotate(0 -230.11371398998824 -35.58512611718686)"><path d="M0.76 -0.18 C-45.02 -12.21, -197.55 -71.45, -274.32 -71.35 C-351.09 -71.24, -428.78 -11.44, -459.85 0.44 M-0.3 -1.33 C-45.72 -13.23, -195.32 -69.85, -272 -69.9 C-348.69 -69.96, -428.97 -13.46, -460.41 -1.63" stroke="#2f9e44" stroke-width="1" fill="none"></path></g><g transform="translate(1927.1159167495068 742.0586799687486) rotate(0 -230.11371398998824 -35.58512611718686)"><path d="M-443.2 -19.77 C-449.03 -14.98, -454.66 -7.13, -460.41 -1.63 M-443.2 -19.77 C-449.25 -14.56, -455.43 -7.2, -460.41 -1.63" stroke="#2f9e44" stroke-width="1" fill="none"></path></g><g transform="translate(1927.1159167495068 742.0586799687486) rotate(0 -230.11371398998824 -35.58512611718686)"><path d="M-435.57 -4.46 C-444.01 -4.64, -452.14 -1.82, -460.41 -1.63 M-435.57 -4.46 C-444.17 -4.49, -452.96 -2.36, -460.41 -1.63" stroke="#2f9e44" stroke-width="1" fill="none"></path></g></g><mask id="mask-_RakQG85RnbBIDjLhdOKo"><rect x="0" y="0" fill="#fff" width="2487.3433447294833" height="913.2289322031223"></rect><rect x="1643.8010728795523" y="648.3884277343748" fill="#000" width="19.50832787370605" height="45" opacity="1"></rect></mask><g transform="translate(1643.8010728795523 648.388427734375) rotate(0 53.487087080121 58.2180040346542)"><text x="9.754163936853026" y="0" font-family="Virgil, Segoe UI Emoji" font-size="36px" fill="#2f9e44" text-anchor="middle" style="white-space: pre;" direction="ltr" dominant-baseline="text-before-edge">11</text></g><g mask="url(#mask-pCFyFvgOWwj3aakAB2Qur)" stroke-linecap="round"><g transform="translate(1933.844921258823 888.6148207696114) rotate(0 -232.36713226027132 13.384751984295008)"><path d="M-1.14 0.52 C-46.8 8.75, -197.35 52.27, -274.66 48.68 C-351.96 45.1, -433.25 -9.14, -464.96 -20.99 M0.46 -0.26 C-45.19 8.21, -197.26 53.83, -274.98 50.08 C-352.7 46.34, -434.21 -10.79, -465.84 -22.71" stroke="#e03131" stroke-width="1" fill="none"></path></g><g transform="translate(1933.844921258823 888.6148207696114) rotate(0 -232.36713226027132 13.384751984295008)"><path d="M-441.01 -19.84 C-446.06 -18.78, -453.29 -21.82, -465.84 -22.71 M-441.01 -19.84 C-451.47 -21.49, -460.79 -22.78, -465.84 -22.71" stroke="#e03131" stroke-width="1" fill="none"></path></g><g transform="translate(1933.844921258823 888.6148207696114) rotate(0 -232.36713226027132 13.384751984295008)"><path d="M-448.66 -4.55 C-451.8 -7.07, -457.2 -13.77, -465.84 -22.71 M-448.66 -4.55 C-456.06 -12.27, -462.33 -19.66, -465.84 -22.71" stroke="#e03131" stroke-width="1" fill="none"></path></g></g><mask id="mask-pCFyFvgOWwj3aakAB2Qur"><rect x="0" y="0" fill="#fff" width="2498.5791857793656" height="1059.726026824299"></rect><rect x="1640.3088943304185" y="915.05517578125" fill="#000" width="35.38135684697383" height="45" opacity="1"></rect></mask><g transform="translate(1640.3088943304185 915.0551757812502) rotate(0 60.84489930017389 -12.646857975996227)"><text x="17.690678423486915" y="0" font-family="Virgil, Segoe UI Emoji" font-size="36px" fill="#e03131" text-anchor="middle" style="white-space: pre;" direction="ltr" dominant-baseline="text-before-edge">12</text></g><g stroke-linecap="round" transform="translate(582.5919901529942 1109.1483561197929) rotate(0 127.77776082356763 80.55557250976562)"><path d="M0 0 C62.17 0.15, 124.11 0.97, 255.56 0 M0 0 C93.57 -0.59, 188.57 -0.99, 255.56 0 M255.56 0 C252.77 36.02, 252.54 68.97, 255.56 161.11 M255.56 0 C253.81 43.53, 254.51 85.02, 255.56 161.11 M255.56 161.11 C175.3 161.19, 98.1 162.95, 0 161.11 M255.56 161.11 C180.19 162.1, 105.68 161.76, 0 161.11 M0 161.11 C-1.94 119.65, 0.16 77.97, 0 0 M0 161.11 C-1.11 112.97, -1.99 66.7, 0 0" stroke="#1e1e1e" stroke-width="1" fill="none"></path></g><g transform="translate(649.2588602701817 1162.851867675783) rotate(0 59.98184453894078 27.129669189453125)"><text x="0" y="0" font-family="Virgil, Segoe UI Emoji" font-size="43.40747070312504px" fill="#1e1e1e" text-anchor="start" style="white-space: pre;" direction="ltr" dominant-baseline="text-before-edge">Kunde</text></g><g stroke-linecap="round" transform="translate(1304.9620157877607 1083.7038777669272) rotate(0 168.51826985677098 114.14829508463549)"><path d="M238.23 10.13 C254.42 13.02, 270.61 22.47, 283.61 30.42 C296.62 38.36, 307.77 47.56, 316.24 57.79 C324.71 68.02, 331.18 80.29, 334.43 91.81 C337.67 103.32, 337.73 115.21, 335.72 126.88 C333.71 138.55, 329.72 150.91, 322.37 161.83 C315.01 172.76, 303.53 183.92, 291.62 192.45 C279.7 200.98, 265.86 207.28, 250.88 213.02 C235.89 218.75, 218.73 224.4, 201.68 226.85 C184.64 229.29, 165.71 229.15, 148.62 227.7 C131.52 226.24, 114.84 222.95, 99.1 218.11 C83.36 213.26, 66.97 206.65, 54.16 198.63 C41.36 190.61, 30.6 180.41, 22.26 169.97 C13.91 159.54, 7.7 147.38, 4.1 136.01 C0.5 124.63, -1.37 113.37, 0.65 101.72 C2.67 90.08, 8.87 77.07, 16.21 66.15 C23.56 55.23, 33.23 44.62, 44.7 36.19 C56.18 27.76, 69.87 21.14, 85.05 15.56 C100.23 9.97, 118.51 4.98, 135.78 2.67 C153.05 0.35, 169.66 -0.23, 188.68 1.68 C207.7 3.58, 238.59 11.03, 249.91 14.08 C261.24 17.13, 257.97 18.49, 256.62 19.99 M224.27 5.92 C241.14 7.66, 259 15.03, 272.69 22.38 C286.38 29.74, 296.64 39.94, 306.4 50.03 C316.16 60.13, 326.09 71.72, 331.25 82.96 C336.42 94.2, 337.88 105.83, 337.39 117.45 C336.9 129.07, 334 141.59, 328.32 152.69 C322.63 163.79, 313.83 174.53, 303.28 184.05 C292.72 193.58, 279.42 203.1, 265 209.84 C250.58 216.58, 233.61 221.43, 216.76 224.51 C199.91 227.59, 181.58 229.01, 163.89 228.33 C146.19 227.65, 127.18 224.27, 110.58 220.44 C93.98 216.61, 77.8 212.13, 64.29 205.35 C50.77 198.56, 39.18 189.84, 29.49 179.74 C19.79 169.65, 10.77 156.29, 6.11 144.79 C1.45 133.3, 0.69 122.21, 1.52 110.79 C2.35 99.37, 5.26 87.3, 11.1 76.28 C16.93 65.25, 26.25 53.82, 36.52 44.62 C46.79 35.43, 58.73 27.63, 72.7 21.12 C86.67 14.62, 103.6 9.35, 120.33 5.6 C137.06 1.85, 155.73 -1.49, 173.08 -1.4 C190.43 -1.3, 215.68 4.24, 224.41 6.18 C233.14 8.13, 226.24 8.6, 225.47 10.28" stroke="#1e1e1e" stroke-width="1" fill="none"></path></g><g transform="translate(1374.0319104077969 1130.1371393363338) rotate(0 99.2879638671875 67.5)"><text x="99.2879638671875" y="0" font-family="Virgil, Segoe UI Emoji" font-size="36px" fill="#1e1e1e" text-anchor="middle" style="white-space: pre;" direction="ltr" dominant-baseline="text-before-edge">Verwandte</text><text x="99.2879638671875" y="45" font-family="Virgil, Segoe UI Emoji" font-size="36px" fill="#1e1e1e" text-anchor="middle" style="white-space: pre;" direction="ltr" dominant-baseline="text-before-edge">Aktienkurse</text><text x="99.2879638671875" y="90" font-family="Virgil, Segoe UI Emoji" font-size="36px" fill="#1e1e1e" text-anchor="middle" style="white-space: pre;" direction="ltr" dominant-baseline="text-before-edge">anzeigen</text></g><g mask="url(#mask-LDQurX_1maZlcjEFHy44s)" stroke-linecap="round"><g transform="translate(849.1106567382803 1188.7067808840661) rotate(0 223.34953171247332 -1.1586105470983057)"><path d="M0 0 C149.83 -1.73, 301.86 -2.64, 446.7 -2.32 M0 0 C121.84 0.45, 242.83 -0.19, 446.7 -2.32" stroke="#f08c00" stroke-width="1" fill="none"></path></g><g transform="translate(849.1106567382803 1188.7067808840661) rotate(0 223.34953171247332 -1.1586105470983057)"><path d="M423.29 6.45 C429.35 5.01, 439.86 1.79, 446.7 -2.32 M423.29 6.45 C430.38 3.8, 435.71 1.4, 446.7 -2.32" stroke="#f08c00" stroke-width="1" fill="none"></path></g><g transform="translate(849.1106567382803 1188.7067808840661) rotate(0 223.34953171247332 -1.1586105470983057)"><path d="M423.13 -10.65 C429.1 -6.32, 439.67 -3.77, 446.7 -2.32 M423.13 -10.65 C430.19 -8.65, 435.56 -6.39, 446.7 -2.32" stroke="#f08c00" stroke-width="1" fill="none"></path></g></g><mask id="mask-LDQurX_1maZlcjEFHy44s"><rect x="0" y="0" fill="#fff" width="1395.809720163227" height="1291.0240019782627"></rect><rect x="1055.3274080933652" y="1165.0481703369678" fill="#000" width="34.26556071477694" height="45" opacity="1"></rect></mask><g transform="translate(1055.3274080933652 1165.0481703369678) rotate(0 17.13278035738847 22.535156037534648)"><text x="17.13278035738847" y="0" font-family="Virgil, Segoe UI Emoji" font-size="36px" fill="#f08c00" text-anchor="middle" style="white-space: pre;" direction="ltr" dominant-baseline="text-before-edge">13</text></g><g mask="url(#mask-TJ2P4hbmoQY-9ZSf12KqF)" stroke-linecap="round"><g transform="translate(1323.0429055003358 1122.1531720430062) rotate(0 -230.29949840446523 -36.74327303322161)"><path d="M0.79 0.94 C-46.86 -11.02, -209.84 -72.11, -286.56 -72.31 C-363.29 -72.51, -430.42 -12.14, -459.58 -0.27 M-0.25 0.38 C-47.94 -11.83, -210.55 -73.91, -287.14 -73.81 C-363.74 -73.71, -430.7 -11.23, -459.8 0.98" stroke="#2f9e44" stroke-width="1" fill="none"></path></g><g transform="translate(1323.0429055003358 1122.1531720430062) rotate(0 -230.29949840446523 -36.74327303322161)"><path d="M-444.11 -18.48 C-446.46 -12.47, -449.88 -7.2, -459.8 0.98 M-444.11 -18.48 C-448.99 -13.28, -453.08 -7.64, -459.8 0.98" stroke="#2f9e44" stroke-width="1" fill="none"></path></g><g transform="translate(1323.0429055003358 1122.1531720430062) rotate(0 -230.29949840446523 -36.74327303322161)"><path d="M-435.27 -3.84 C-439.71 -1.34, -445.28 0.37, -459.8 0.98 M-435.27 -3.84 C-442.6 -2.96, -449.26 -1.56, -459.8 0.98" stroke="#2f9e44" stroke-width="1" fill="none"></path></g></g><mask id="mask-TJ2P4hbmoQY-9ZSf12KqF"><rect x="0" y="0" fill="#fff" width="1883.6419023092662" height="1295.6397181094494"></rect><rect x="1019.3822428366861" y="1026.166625976563" fill="#000" width="32.789835615688425" height="45" opacity="1"></rect></mask><g transform="translate(1019.3822428366861 1026.166625976563) rotate(0 74.15447937706506 59.56959364540501)"><text x="16.394917807844212" y="0" font-family="Virgil, Segoe UI Emoji" font-size="36px" fill="#2f9e44" text-anchor="middle" style="white-space: pre;" direction="ltr" dominant-baseline="text-before-edge">14</text></g><g mask="url(#mask-vUKNSRZxLOg6zcPKcVPY5)" stroke-linecap="round"><g transform="translate(1323.0628747041012 1272.9973969247549) rotate(0 -234.75394101416043 17.891213915088883)"><path d="M-0.01 0.1 C-48.43 9.26, -212.77 57.68, -291.11 54.58 C-369.44 51.48, -440.15 -6.27, -470.04 -18.5 M-1.47 -0.9 C-49.94 7.99, -213.46 55.84, -291.73 53.05 C-369.99 50.26, -441.26 -5.73, -471.08 -17.62" stroke="#e03131" stroke-width="1" fill="none"></path></g><g transform="translate(1323.0628747041012 1272.9973969247549) rotate(0 -234.75394101416043 17.891213915088883)"><path d="M-446.34 -14.01 C-452.35 -13.87, -456.82 -16.7, -471.08 -17.62 M-446.34 -14.01 C-451.48 -15.77, -458.18 -16.43, -471.08 -17.62" stroke="#e03131" stroke-width="1" fill="none"></path></g><g transform="translate(1323.0628747041012 1272.9973969247549) rotate(0 -234.75394101416043 17.891213915088883)"><path d="M-454.45 1.05 C-458.38 -2.58, -460.82 -9.17, -471.08 -17.62 M-454.45 1.05 C-457.6 -4.11, -462.43 -8.24, -471.08 -17.62" stroke="#e03131" stroke-width="1" fill="none"></path></g></g><mask id="mask-vUKNSRZxLOg6zcPKcVPY5"><rect x="0" y="0" fill="#fff" width="1892.570756732422" height="1444.1083588388174"></rect><rect x="1015.3335918820676" y="1303.944091796875" fill="#000" width="31.99797736867542" height="45" opacity="1"></rect></mask><g transform="translate(1015.3335918820676 1303.944091796875) rotate(0 72.1856567281942 -12.835365521158224)"><text x="15.99898868433771" y="0" font-family="Virgil, Segoe UI Emoji" font-size="36px" fill="#e03131" text-anchor="middle" style="white-space: pre;" direction="ltr" dominant-baseline="text-before-edge">15</text></g><g transform="translate(593.5552368164053 10) rotate(0 542.58056640625 48.0555419921875)"><text x="0" y="0" font-family="Virgil, Segoe UI Emoji" font-size="76.8888671875px" fill="#1e1e1e" text-anchor="start" style="white-space: pre;" direction="ltr" dominant-baseline="text-before-edge">Ereignis - Reaktion - Modelle</text></g></svg>