<svg version="1.1" xmlns="http://www.w3.org/2000/svg" viewBox="0 0 1615.9172474941788 1207.407557169596" width="1615.9172474941788" height="1207.407557169596">
  <!-- svg-source:excalidraw -->
  
  <defs>
    <style class="style-fonts">
      @font-face {
        font-family: "Virgil";
        src: url("https://excalidraw.com/Virgil.woff2");
      }
      @font-face {
        font-family: "Cascadia";
        src: url("https://excalidraw.com/Cascadia.woff2");
      }
      @font-face {
        font-family: "Assistant";
        src: url("https://excalidraw.com/Assistant-Regular.woff2");
      }
    </style>
    
  </defs>
  <rect x="0" y="0" width="1615.9172474941788" height="1207.407557169596" fill="#ffffff"></rect><g stroke-linecap="round"><g transform="translate(1222.892267714322 911.9651252825944) rotate(0 -403.34212159228 31.026388940237055)"><path d="M0.15 0.68 C-76.09 14.44, -322.63 86.52, -457.05 83.24 C-591.48 79.95, -748.3 -1.77, -806.39 -19.03 M-1.23 -0.01 C-77.11 13.4, -320.39 85.21, -454.69 81.73 C-588.99 78.25, -748.05 -4.01, -807.01 -20.86" stroke="#1e1e1e" stroke-width="0.5" fill="none"></path></g><g transform="translate(1222.892267714322 911.9651252825944) rotate(0 -403.34212159228 31.026388940237055)"><path d="M-782.01 -20.57 C-789.21 -21.74, -796.73 -20.25, -807.01 -20.86 M-782.01 -20.57 C-791.12 -21.51, -801.34 -19.9, -807.01 -20.86" stroke="#1e1e1e" stroke-width="0.5" fill="none"></path></g><g transform="translate(1222.892267714322 911.9651252825944) rotate(0 -403.34212159228 31.026388940237055)"><path d="M-788.04 -4.57 C-793.32 -11.09, -798.83 -14.93, -807.01 -20.86 M-788.04 -4.57 C-795 -11.61, -802.91 -16.11, -807.01 -20.86" stroke="#1e1e1e" stroke-width="0.5" fill="none"></path></g></g><mask></mask><g stroke-linecap="round"><g transform="translate(1254.9193163734537 933.9838174477418) rotate(0 -445.3777466585258 41.03491036906871)"><path d="M0.66 0 C-85.3 19.19, -366.07 120.05, -514.62 114.89 C-663.17 109.73, -827.96 -6.47, -890.63 -30.95 M-0.45 -1.04 C-86.68 17.83, -367.18 118.47, -515.66 113.19 C-664.14 107.91, -828.88 -8.72, -891.33 -32.73" stroke="#1e1e1e" stroke-width="0.5" fill="none"></path></g><g transform="translate(1254.9193163734537 933.9838174477418) rotate(0 -445.3777466585258 41.03491036906871)"><path d="M-866.52 -29.68 C-876.3 -31.05, -884.78 -31.74, -891.33 -32.73 M-866.52 -29.68 C-875.84 -31.05, -885.4 -32.29, -891.33 -32.73" stroke="#1e1e1e" stroke-width="0.5" fill="none"></path></g><g transform="translate(1254.9193163734537 933.9838174477418) rotate(0 -445.3777466585258 41.03491036906871)"><path d="M-874.28 -14.44 C-880.98 -21.88, -886.39 -28.59, -891.33 -32.73 M-874.28 -14.44 C-880.6 -21.75, -887.13 -28.92, -891.33 -32.73" stroke="#1e1e1e" stroke-width="0.5" fill="none"></path></g></g><mask></mask><g stroke-linecap="round"><g transform="translate(1300.958569924362 947.9956924698237) rotate(0 -493.4185395603529 51.043376819617876)"><path d="M-1.02 1.13 C-99.93 25.73, -428.37 154.63, -592.48 147.12 C-756.6 139.61, -920.12 -12.17, -985.7 -43.93 M0.64 0.68 C-98.51 25, -429.01 152.73, -593.42 145.52 C-757.84 138.32, -920.57 -10.69, -985.87 -42.56" stroke="#1e1e1e" stroke-width="0.5" fill="none"></path></g><g transform="translate(1300.958569924362 947.9956924698237) rotate(0 -493.4185395603529 51.043376819617876)"><path d="M-961.5 -36.99 C-968.89 -39.29, -978.39 -39.55, -985.87 -42.56 M-961.5 -36.99 C-968.31 -38.66, -977.41 -39.48, -985.87 -42.56" stroke="#1e1e1e" stroke-width="0.5" fill="none"></path></g><g transform="translate(1300.958569924362 947.9956924698237) rotate(0 -493.4185395603529 51.043376819617876)"><path d="M-970.78 -22.63 C-974.57 -30.33, -980.54 -36.06, -985.87 -42.56 M-970.78 -22.63 C-974.83 -28.77, -981.07 -34.02, -985.87 -42.56" stroke="#1e1e1e" stroke-width="0.5" fill="none"></path></g></g><mask></mask><g stroke-linecap="round"><g transform="translate(1348.9992528696248 958.0042688769377) rotate(0 -542.4601571159224 59.05008400611861)"><path d="M-0.62 0.02 C-109.59 29.87, -473.95 188.72, -654.65 178.9 C-835.35 169.07, -1013.19 -19.2, -1084.82 -58.93 M1.26 -1.02 C-107.81 28.51, -474.52 187.11, -655.65 177.17 C-836.79 167.22, -1014.16 -20.87, -1085.53 -60.68" stroke="#1e1e1e" stroke-width="0.5" fill="none"></path></g><g transform="translate(1348.9992528696248 958.0042688769377) rotate(0 -542.4601571159224 59.05008400611861)"><path d="M-1061.58 -53.51 C-1067.07 -55.46, -1071.4 -56.78, -1085.53 -60.68 M-1061.58 -53.51 C-1071.44 -55.86, -1079.64 -59.8, -1085.53 -60.68" stroke="#1e1e1e" stroke-width="0.5" fill="none"></path></g><g transform="translate(1348.9992528696248 958.0042688769377) rotate(0 -542.4601571159224 59.05008400611861)"><path d="M-1071.79 -39.79 C-1074.9 -44.85, -1076.87 -49.35, -1085.53 -60.68 M-1071.79 -39.79 C-1077.69 -47.59, -1081.87 -56.94, -1085.53 -60.68" stroke="#1e1e1e" stroke-width="0.5" fill="none"></path></g></g><mask></mask><g stroke-linecap="round"><g transform="translate(1403.0451036504687 968.0127353274871) rotate(0 -593.503478957258 72.06107939617593)"><path d="M-0.78 0.51 C-120.16 37.02, -519.31 231.6, -717.16 219.05 C-915.01 206.51, -1109.57 -25.76, -1187.87 -74.78 M1.02 -0.27 C-118.5 35.91, -520.66 229.65, -718.4 217.39 C-916.14 205.13, -1107.39 -25.2, -1185.43 -73.83" stroke="#1e1e1e" stroke-width="0.5" fill="none"></path></g><g transform="translate(1403.0451036504687 968.0127353274871) rotate(0 -593.503478957258 72.06107939617593)"><path d="M-1161.93 -65.3 C-1166.45 -68.33, -1171.21 -70.79, -1185.43 -73.83 M-1161.93 -65.3 C-1166.99 -67.29, -1173.94 -69.2, -1185.43 -73.83" stroke="#1e1e1e" stroke-width="0.5" fill="none"></path></g><g transform="translate(1403.0451036504687 968.0127353274871) rotate(0 -593.503478957258 72.06107939617593)"><path d="M-1172.91 -52.19 C-1174.92 -58.14, -1177.18 -63.6, -1185.43 -73.83 M-1172.91 -52.19 C-1175.33 -57.24, -1179.64 -62.31, -1185.43 -73.83" stroke="#1e1e1e" stroke-width="0.5" fill="none"></path></g></g><mask></mask><g stroke-linecap="round"><g transform="translate(1192.866868362675 609.7088227192436) rotate(0 -380.3227147299557 -85.07212976451589)"><path d="M-0.64 -0.34 C-74.15 -29.9, -313.7 -177.4, -440.33 -176.29 C-566.96 -175.18, -707.14 -24.22, -760.43 6.3 M1.22 -1.57 C-72.51 -30.41, -314.21 -176.38, -441.26 -174.83 C-568.31 -173.27, -708.04 -22.15, -761.08 7.77" stroke="#1e1e1e" stroke-width="0.5" fill="none"></path></g><g transform="translate(1192.866868362675 609.7088227192436) rotate(0 -380.3227147299557 -85.07212976451589)"><path d="M-747.61 -13.29 C-752.87 -5.68, -757.41 2.24, -761.08 7.77 M-747.61 -13.29 C-751.24 -6.17, -755.76 0.84, -761.08 7.77" stroke="#1e1e1e" stroke-width="0.5" fill="none"></path></g><g transform="translate(1192.866868362675 609.7088227192436) rotate(0 -380.3227147299557 -85.07212976451589)"><path d="M-737.22 0.29 C-746.36 2.94, -754.65 5.94, -761.08 7.77 M-737.22 0.29 C-744.29 3.08, -752.18 5.68, -761.08 7.77" stroke="#1e1e1e" stroke-width="0.5" fill="none"></path></g></g><mask></mask><g stroke-linecap="round"><g transform="translate(1242.909200615421 575.6799048394984) rotate(0 -435.36933518625915 -72.06113437445842)"><path d="M-0.7 0.85 C-85.32 -30.17, -362.27 -194.15, -507.43 -187.15 C-652.59 -180.15, -810.93 4.58, -871.64 42.85 M1.14 0.25 C-83.58 -30.55, -362.79 -192.92, -507.85 -186.14 C-652.91 -179.36, -808.54 2.62, -869.22 40.94" stroke="#1e1e1e" stroke-width="0.5" fill="none"></path></g><g transform="translate(1242.909200615421 575.6799048394984) rotate(0 -435.36933518625915 -72.06113437445842)"><path d="M-856.67 19.31 C-859.52 27.92, -866.65 31.75, -869.22 40.94 M-856.67 19.31 C-862.04 27.77, -866.24 34.89, -869.22 40.94" stroke="#1e1e1e" stroke-width="0.5" fill="none"></path></g><g transform="translate(1242.909200615421 575.6799048394984) rotate(0 -435.36933518625915 -72.06113437445842)"><path d="M-845.71 32.44 C-851.99 36.72, -862.68 36.3, -869.22 40.94 M-845.71 32.44 C-855.01 36.1, -863.24 38.39, -869.22 40.94" stroke="#1e1e1e" stroke-width="0.5" fill="none"></path></g></g><mask></mask><g stroke-linecap="round"><g transform="translate(1296.955051396265 553.661212674351) rotate(0 -487.41348168133663 -74.06278368194234)"><path d="M-1.11 0.45 C-98.28 -35.66, -420.31 -229.29, -582.44 -217.6 C-744.57 -205.91, -908.3 22.49, -973.89 70.58 M0.51 -0.36 C-96.86 -36.74, -420.91 -230.89, -583.36 -219.41 C-745.81 -207.93, -908.67 20.47, -974.17 68.52" stroke="#1e1e1e" stroke-width="0.5" fill="none"></path></g><g transform="translate(1296.955051396265 553.661212674351) rotate(0 -487.41348168133663 -74.06278368194234)"><path d="M-963.41 45.95 C-966.6 53.81, -970.11 63.15, -974.17 68.52 M-963.41 45.95 C-968.16 54.69, -971.72 61.11, -974.17 68.52" stroke="#1e1e1e" stroke-width="0.5" fill="none"></path></g><g transform="translate(1296.955051396265 553.661212674351) rotate(0 -487.41348168133663 -74.06278368194234)"><path d="M-951.42 58.14 C-958.69 61.64, -966.39 66.73, -974.17 68.52 M-951.42 58.14 C-960.17 62.78, -967.85 65.01, -974.17 68.52" stroke="#1e1e1e" stroke-width="0.5" fill="none"></path></g></g><mask></mask><g stroke-linecap="round"><g transform="translate(1344.995734341527 541.6509869597529) rotate(0 -540.4583978518734 -86.07295441825795)"><path d="M-0.34 0.24 C-108.8 -41.64, -469.47 -263.9, -649.58 -250.82 C-829.69 -237.75, -1008.96 23.81, -1081.01 78.71 M1.68 -0.69 C-106.96 -42.45, -469.44 -262.51, -650.02 -249.61 C-830.6 -236.71, -1009.8 22.39, -1081.82 76.71" stroke="#1e1e1e" stroke-width="0.5" fill="none"></path></g><g transform="translate(1344.995734341527 541.6509869597529) rotate(0 -540.4583978518734 -86.07295441825795)"><path d="M-1071.39 53.99 C-1075.05 64.58, -1080.6 71.82, -1081.82 76.71 M-1071.39 53.99 C-1074.72 62.31, -1079.14 69.38, -1081.82 76.71" stroke="#1e1e1e" stroke-width="0.5" fill="none"></path></g><g transform="translate(1344.995734341527 541.6509869597529) rotate(0 -540.4583978518734 -86.07295441825795)"><path d="M-1059.22 66 C-1067.75 71.8, -1078.12 74.28, -1081.82 76.71 M-1059.22 66 C-1066.77 70.13, -1075.48 72.94, -1081.82 76.71" stroke="#1e1e1e" stroke-width="0.5" fill="none"></path></g></g><mask></mask><g stroke-linecap="round"><g transform="translate(1391.0349878924353 537.6475783882203) rotate(0 -584.4958921387329 -103.08738586898943)"><path d="M0.51 0.01 C-116.18 -48.89, -505.2 -307.12, -699.96 -292.68 C-894.72 -278.24, -1089.94 23.57, -1168.05 86.64 M-0.68 -1.04 C-117.49 -49.82, -505.96 -305.64, -700.57 -291.37 C-895.18 -277.09, -1090.39 21.6, -1168.33 84.6" stroke="#1e1e1e" stroke-width="0.5" fill="none"></path></g><g transform="translate(1391.0349878924353 537.6475783882203) rotate(0 -584.4958921387329 -103.08738586898943)"><path d="M-1158.61 61.56 C-1161.55 69.95, -1165.34 77.73, -1168.33 84.6 M-1158.61 61.56 C-1162.68 69.58, -1165.33 77.5, -1168.33 84.6" stroke="#1e1e1e" stroke-width="0.5" fill="none"></path></g><g transform="translate(1391.0349878924353 537.6475783882203) rotate(0 -584.4958921387329 -103.08738586898943)"><path d="M-1146.08 73.19 C-1153.04 77.95, -1160.8 82.06, -1168.33 84.6 M-1146.08 73.19 C-1154.54 77.14, -1161.54 81.02, -1168.33 84.6" stroke="#1e1e1e" stroke-width="0.5" fill="none"></path></g></g><mask></mask><g transform="translate(157.95914602369066 727.6879319014322) rotate(0 75.8994140625 34.32915428021144)"><text x="75.8994140625" y="0" font-family="Virgil, Segoe UI Emoji" font-size="54.92664684833831px" fill="#1e1e1e" text-anchor="middle" style="white-space: pre;" direction="ltr" dominant-baseline="text-before-edge">Kunde</text></g><g stroke-linecap="round" transform="translate(10 635.5304451489653) rotate(0 220.90168536063743 120.10188604257388)"><path d="M0 0 C144.13 0.11, 290.2 0.86, 441.8 0 M0 0 C135.03 1.19, 269.97 1.81, 441.8 0 M441.8 0 C439.99 66.45, 438.58 133.24, 441.8 240.2 M441.8 0 C442.43 55.53, 442.62 110.88, 441.8 240.2 M441.8 240.2 C298.3 241.97, 155.52 241.87, 0 240.2 M441.8 240.2 C270.1 238.22, 97.02 238.41, 0 240.2 M0 240.2 C-2.19 170.66, -1.23 99.94, 0 0 M0 240.2 C-0.11 186.38, 0.04 132.06, 0 0" stroke="#1e1e1e" stroke-width="1" fill="none"></path></g><g stroke-linecap="round" transform="translate(1155.535102675531 553.9614353302464) rotate(0 225.19107240932385 198.43575597938957)"><path d="M173.81 4.59 C190.77 -2.14, 212.99 0.21, 232.61 1.03 C252.23 1.85, 272.76 4.55, 291.53 9.53 C310.31 14.51, 328.86 21.88, 345.27 30.9 C361.67 39.92, 376.88 51.42, 389.95 63.67 C403.01 75.93, 414.66 89.51, 423.66 104.43 C432.65 119.35, 439.51 136.3, 443.92 153.21 C448.33 170.11, 450.63 188.8, 450.13 205.85 C449.64 222.9, 446.55 239.31, 440.97 255.51 C435.4 271.72, 427.12 288.56, 416.67 303.08 C406.22 317.6, 392.41 330.83, 378.26 342.64 C364.11 354.45, 348.93 365.75, 331.76 373.92 C314.59 382.1, 294.39 388, 275.25 391.7 C256.12 395.4, 236.13 396.73, 216.97 396.13 C197.82 395.53, 178.83 392.88, 160.31 388.1 C141.79 383.31, 122.5 376.42, 105.83 367.41 C89.16 358.4, 73.48 346.57, 60.29 334.02 C47.09 321.47, 35.84 307.24, 26.66 292.1 C17.47 276.96, 9.71 259.84, 5.19 243.16 C0.68 226.48, -1.24 209.24, -0.43 192.02 C0.39 174.8, 4.36 156.16, 10.06 139.83 C15.77 123.51, 23.46 108.46, 33.79 94.06 C44.12 79.66, 57.89 65.12, 72.05 53.45 C86.2 41.77, 99.33 32.66, 118.71 24.02 C138.09 15.38, 174 4.73, 188.35 1.6 C202.69 -1.52, 204.16 1.7, 204.79 5.27 M136.5 14.46 C151.87 4.77, 175.19 2.51, 194.5 0.49 C213.81 -1.54, 232.92 -0.23, 252.36 2.32 C271.81 4.87, 293.02 9.39, 311.16 15.8 C329.29 22.21, 345.77 30.57, 361.18 40.78 C376.58 50.99, 391.87 63.53, 403.57 77.07 C415.27 90.6, 423.96 106.09, 431.38 122 C438.79 137.91, 445.22 155.72, 448.07 172.53 C450.92 189.33, 450.79 206.17, 448.5 222.83 C446.21 239.48, 441.78 256.59, 434.33 272.47 C426.88 288.35, 415.52 304.25, 403.82 318.09 C392.12 331.94, 379.44 345.14, 364.13 355.53 C348.83 365.92, 330.2 373.63, 311.98 380.46 C293.76 387.28, 273.92 394.11, 254.81 396.49 C235.71 398.86, 216.2 397.01, 197.35 394.71 C178.51 392.4, 159.79 388.82, 141.72 382.67 C123.65 376.51, 104.55 368.03, 88.93 357.8 C73.31 347.57, 60.07 335.03, 48.01 321.29 C35.94 307.55, 24.23 291.4, 16.53 275.36 C8.83 259.33, 4.31 242.22, 1.81 225.06 C-0.68 207.91, -0.83 189.24, 1.55 172.44 C3.94 155.63, 8.98 139.62, 16.11 124.24 C23.24 108.85, 32.53 94.11, 44.33 80.12 C56.13 66.12, 71.57 51.18, 86.93 40.29 C102.29 29.4, 127.98 18.41, 136.49 14.78 C145 11.15, 136.26 15.13, 137.99 18.52" stroke="#1e1e1e" stroke-width="1" fill="none"></path></g><g transform="translate(1354.9646343783604 629.6880245838296) rotate(0 24.19695281982422 43.9636475858685)"><text x="24.19695281982422" y="0" font-family="Virgil, Segoe UI Emoji" font-size="70.34183613738962px" fill="#1e1e1e" text-anchor="middle" style="white-space: pre;" direction="ltr" dominant-baseline="text-before-edge">0</text></g><g transform="translate(1192.794923808062 735.0061789848224) rotate(0 189.11712646484375 49.05151041539938)"><text x="0" y="0" font-family="Virgil, Segoe UI Emoji" font-size="39.2412083323195px" fill="#1e1e1e" text-anchor="start" style="white-space: pre;" direction="ltr" dominant-baseline="text-before-edge"> Data Whispers AG</text><text x="0" y="49.05151041539938" font-family="Virgil, Segoe UI Emoji" font-size="39.2412083323195px" fill="#1e1e1e" text-anchor="start" style="white-space: pre;" direction="ltr" dominant-baseline="text-before-edge">     - Website - </text></g><g stroke-linecap="round"><g transform="translate(474.2570639690093 864.9240791498298) rotate(0 343.9936988739166 -1.373070506429272)"><path d="M-0.6 0.92 C114.25 0.3, 573.84 -1.95, 688.44 -2.52 M1.29 0.35 C116.08 -0.15, 573.04 -4.29, 687.73 -4.52" stroke="#1e1e1e" stroke-width="0.5" fill="none"></path></g><g transform="translate(474.2570639690093 864.9240791498298) rotate(0 343.9936988739166 -1.373070506429272)"><path d="M664.29 4.17 C671.45 2.91, 676.03 -1.59, 687.73 -4.52 M664.29 4.17 C671.52 1.5, 680.31 -1.23, 687.73 -4.52" stroke="#1e1e1e" stroke-width="0.5" fill="none"></path></g><g transform="translate(474.2570639690093 864.9240791498298) rotate(0 343.9936988739166 -1.373070506429272)"><path d="M664.18 -12.93 C671.55 -10.01, 676.15 -10.33, 687.73 -4.52 M664.18 -12.93 C671.47 -10.12, 680.29 -7.36, 687.73 -4.52" stroke="#1e1e1e" stroke-width="0.5" fill="none"></path></g></g><mask></mask><g stroke-linecap="round"><g transform="translate(472.2551947483953 808.5491727539063) rotate(0 336.6048813274026 -0.15175283423792507)"><path d="M0.95 0.51 C113.26 0.53, 561.26 0.3, 673.32 0.18 M-0.01 -0.27 C112.2 -0.61, 560.34 -1.93, 672.43 -1.69" stroke="#1e1e1e" stroke-width="0.5" fill="none"></path></g><g transform="translate(472.2551947483953 808.5491727539063) rotate(0 336.6048813274026 -0.15175283423792507)"><path d="M648.95 6.88 C655.82 4.68, 661.8 2.45, 672.43 -1.69 M648.95 6.88 C656.71 4.38, 663.48 1.31, 672.43 -1.69" stroke="#1e1e1e" stroke-width="0.5" fill="none"></path></g><g transform="translate(472.2551947483953 808.5491727539063) rotate(0 336.6048813274026 -0.15175283423792507)"><path d="M648.93 -10.22 C655.82 -8.03, 661.81 -5.88, 672.43 -1.69 M648.93 -10.22 C656.72 -7.42, 663.49 -5.19, 672.43 -1.69" stroke="#1e1e1e" stroke-width="0.5" fill="none"></path></g></g><mask></mask><g stroke-linecap="round"><g transform="translate(470.2535454409117 757.2226772387189) rotate(0 337.28450417602744 0.5994273608558842)"><path d="M0.73 0.59 C113.32 0.78, 562.05 1.78, 674.51 1.9 M-0.34 -0.15 C112.17 -0.37, 560.94 -0.32, 673.53 0.15" stroke="#1e1e1e" stroke-width="0.5" fill="none"></path></g><g transform="translate(470.2535454409117 757.2226772387189) rotate(0 337.28450417602744 0.5994273608558842)"><path d="M650.02 8.65 C656.01 6.58, 661.25 6.39, 673.53 0.15 M650.02 8.65 C656.62 6.37, 663.72 4.13, 673.53 0.15" stroke="#1e1e1e" stroke-width="0.5" fill="none"></path></g><g transform="translate(470.2535454409117 757.2226772387189) rotate(0 337.28450417602744 0.5994273608558842)"><path d="M650.05 -8.45 C656.14 -6.84, 661.38 -3.36, 673.53 0.15 M650.05 -8.45 C656.58 -5.47, 663.67 -2.44, 673.53 0.15" stroke="#1e1e1e" stroke-width="0.5" fill="none"></path></g></g><mask></mask><g stroke-linecap="round"><g transform="translate(480.26223180459056 663.8615981624433) rotate(0 341.94175914012885 -1.3472373974754817)"><path d="M0.3 -0.41 C114.27 -0.6, 570.64 -1.59, 684.5 -1.79 M-1 -1.67 C112.81 -2.13, 569.96 -3.15, 683.87 -3.44" stroke="#1e1e1e" stroke-width="0.5" fill="none"></path></g><g transform="translate(480.26223180459056 663.8615981624433) rotate(0 341.94175914012885 -1.3472373974754817)"><path d="M660.4 5.16 C668.12 3.06, 678.65 -1.73, 683.87 -3.44 M660.4 5.16 C670.35 1.64, 677.96 -1.8, 683.87 -3.44" stroke="#1e1e1e" stroke-width="0.5" fill="none"></path></g><g transform="translate(480.26223180459056 663.8615981624433) rotate(0 341.94175914012885 -1.3472373974754817)"><path d="M660.36 -11.94 C668 -7.95, 678.55 -6.65, 683.87 -3.44 M660.36 -11.94 C670.45 -8.82, 678.07 -5.63, 683.87 -3.44" stroke="#1e1e1e" stroke-width="0.5" fill="none"></path></g></g><mask></mask><g stroke-linecap="round" transform="translate(766.7051859647804 630.0258683196727) rotate(0 18.765957062203597 24.32063285137974)"><path d="M9.38 0 C17.26 1.69, 27.25 -0.56, 28.15 0 C33.69 2.13, 37.03 3.97, 37.53 9.38 C34.69 17.61, 35.2 29.43, 37.53 39.26 C35.92 42.93, 33.35 51.51, 28.15 48.64 C23.39 45.59, 20.22 46.69, 9.38 48.64 C1.93 45.21, 2.65 44.2, 0 39.26 C0.68 31.04, 2.77 24.4, 0 9.38 C-2.85 4.21, 0.46 0.82, 9.38 0" stroke="none" stroke-width="0" fill="#ffec99"></path><path d="M9.38 0 C14.73 0.57, 20.38 -1.71, 28.15 0 M9.38 0 C14.37 0.67, 20.42 0.53, 28.15 0 M28.15 0 C35.28 -0.68, 38.54 4.97, 37.53 9.38 M28.15 0 C34.52 2.06, 38.9 3.43, 37.53 9.38 M37.53 9.38 C39.09 14.79, 39.55 23.44, 37.53 39.26 M37.53 9.38 C36.64 16.58, 36.67 24.75, 37.53 39.26 M37.53 39.26 C37.32 46.14, 36.37 50.07, 28.15 48.64 M37.53 39.26 C37.82 47.63, 35.33 47.48, 28.15 48.64 M28.15 48.64 C21.88 49.14, 15.37 48.73, 9.38 48.64 M28.15 48.64 C21.82 48.69, 16.32 48.69, 9.38 48.64 M9.38 48.64 C4.38 49.92, 0.68 43.98, 0 39.26 M9.38 48.64 C3.12 46.97, 0.62 45.07, 0 39.26 M0 39.26 C-0.68 27.18, 0.12 17.47, 0 9.38 M0 39.26 C-0.79 28.38, 0.26 18.71, 0 9.38 M0 9.38 C-0.82 2.56, 4.48 0.73, 9.38 0 M0 9.38 C0.59 4.97, 2.24 0.09, 9.38 0" stroke="#1e1e1e" stroke-width="0.5" fill="none"></path></g><g transform="translate(781.370915671027 635.430453397757) rotate(0 4.100227355957031 18.916047773295332)"><text x="4.100227355957031" y="0" font-family="Virgil, Segoe UI Emoji" font-size="30.26567643727255px" fill="#1e1e1e" text-anchor="middle" style="white-space: pre;" direction="ltr" dominant-baseline="text-before-edge">1</text></g><g stroke-linecap="round"><g transform="translate(476.2587132764934 711.3361154906524) rotate(0 338.9482282940671 -1.5352513740019162)"><path d="M1.16 -0.06 C113.89 -0.31, 564.3 -1.29, 676.93 -1.92 M0.31 -1.14 C113.35 -1.65, 565.96 -3.14, 679.14 -3.44" stroke="#1e1e1e" stroke-width="0.5" fill="none"></path></g><g transform="translate(476.2587132764934 711.3361154906524) rotate(0 338.9482282940671 -1.5352513740019162)"><path d="M655.67 5.18 C663.77 0.34, 673.96 -2.6, 679.14 -3.44 M655.67 5.18 C660.94 3.87, 667.61 0.75, 679.14 -3.44" stroke="#1e1e1e" stroke-width="0.5" fill="none"></path></g><g transform="translate(476.2587132764934 711.3361154906524) rotate(0 338.9482282940671 -1.5352513740019162)"><path d="M655.62 -11.92 C663.68 -10.81, 673.88 -7.79, 679.14 -3.44 M655.62 -11.92 C660.91 -9.24, 667.59 -8.37, 679.14 -3.44" stroke="#1e1e1e" stroke-width="0.5" fill="none"></path></g></g><mask></mask><g stroke-linecap="round" transform="translate(766.5552601885356 681.6698966196408) rotate(0 18.765957062203597 24.32063285137974)"><path d="M9.38 0 C13.51 3.44, 20.52 1.91, 28.15 0 C33.7 -0.28, 41 0.81, 37.53 9.38 C37.31 14.4, 35.13 27.21, 37.53 39.26 C39.58 46.48, 33.6 45.65, 28.15 48.64 C24.39 51.32, 15.43 50.83, 9.38 48.64 C3.12 51.96, -3.51 46.41, 0 39.26 C1.64 34.86, 1.3 27.54, 0 9.38 C2.78 4.71, 4.85 -3.2, 9.38 0" stroke="none" stroke-width="0" fill="#ffec99"></path><path d="M9.38 0 C15.01 -1, 21.49 0.46, 28.15 0 M9.38 0 C12.96 -0.89, 16.56 -0.51, 28.15 0 M28.15 0 C33.84 -0.78, 38.76 4.7, 37.53 9.38 M28.15 0 C33.66 0.06, 37.73 1.22, 37.53 9.38 M37.53 9.38 C36.48 19.29, 38.13 28.59, 37.53 39.26 M37.53 9.38 C38.09 17.25, 37.64 25.64, 37.53 39.26 M37.53 39.26 C37.25 43.61, 32.85 49.72, 28.15 48.64 M37.53 39.26 C36.7 47.59, 36.41 48.83, 28.15 48.64 M28.15 48.64 C20.89 47.75, 13.52 47.64, 9.38 48.64 M28.15 48.64 C21.23 49.11, 12.91 47.94, 9.38 48.64 M9.38 48.64 C2.8 49.66, -1.19 46.92, 0 39.26 M9.38 48.64 C2.32 50.35, -1.42 44.78, 0 39.26 M0 39.26 C-1.38 30.41, 0.1 22.65, 0 9.38 M0 39.26 C-0.14 31.72, -0.38 25.53, 0 9.38 M0 9.38 C1.08 5.12, 4.98 -0.57, 9.38 0 M0 9.38 C1.14 2.54, 4.47 -1.63, 9.38 0" stroke="#1e1e1e" stroke-width="0.5" fill="none"></path></g><g transform="translate(775.6380202292548 687.0744816977251) rotate(0 9.683197021484375 18.916047773295332)"><text x="9.683197021484375" y="0" font-family="Virgil, Segoe UI Emoji" font-size="30.26567643727255px" fill="#1e1e1e" text-anchor="middle" style="white-space: pre;" direction="ltr" dominant-baseline="text-before-edge">4</text></g><g stroke-linecap="round" transform="translate(766.5550952536883 732.1126631926204) rotate(0 18.765957062203597 24.320632851379727)"><path d="M9.38 0 C14.6 -2.29, 24.39 -2.93, 28.15 0 C32.35 1.37, 39.58 4.09, 37.53 9.38 C40.68 19.04, 38.82 28.7, 37.53 39.26 C35.46 47.71, 34.4 51.96, 28.15 48.64 C24.21 47.2, 22.07 50.59, 9.38 48.64 C4.41 50.4, 2.78 47.09, 0 39.26 C-0.47 27.41, 2.05 18.23, 0 9.38 C-1.74 6.21, 2.19 2.99, 9.38 0" stroke="none" stroke-width="0" fill="#ffec99"></path><path d="M9.38 0 C14.58 -0.74, 21.3 -0.57, 28.15 0 M9.38 0 C16.19 0.14, 22.17 -0.03, 28.15 0 M28.15 0 C32.84 0.53, 36.71 4.36, 37.53 9.38 M28.15 0 C35.35 2.15, 37.1 5.26, 37.53 9.38 M37.53 9.38 C37.28 17.8, 37.33 26.48, 37.53 39.26 M37.53 9.38 C38.6 16.89, 37.77 23.63, 37.53 39.26 M37.53 39.26 C38.02 44.42, 34.59 47.8, 28.15 48.64 M37.53 39.26 C37.85 44.42, 36.6 50.05, 28.15 48.64 M28.15 48.64 C20.78 47.12, 14.67 49.67, 9.38 48.64 M28.15 48.64 C24.33 47.99, 18.82 48.67, 9.38 48.64 M9.38 48.64 C4.95 49.05, -1.11 45.92, 0 39.26 M9.38 48.64 C3.55 50.84, -1.8 47.5, 0 39.26 M0 39.26 C-0.28 29.06, 1.05 22.79, 0 9.38 M0 39.26 C-0.17 28.12, -0.62 16.42, 0 9.38 M0 9.38 C-0.01 1.78, 1.55 1.9, 9.38 0 M0 9.38 C-1.66 4.27, 2.68 -0.18, 9.38 0" stroke="#1e1e1e" stroke-width="0.5" fill="none"></path></g><g transform="translate(777.1811139613997 737.5172482707048) rotate(0 8.139938354492188 18.916047773295347)"><text x="8.139938354492188" y="0" font-family="Virgil, Segoe UI Emoji" font-size="30.26567643727255px" fill="#1e1e1e" text-anchor="middle" style="white-space: pre;" direction="ltr" dominant-baseline="text-before-edge">7</text></g><g stroke-linecap="round" transform="translate(765.0540232079229 783.1559575448148) rotate(0 21.01781253312288 25.972043010508145)"><path d="M10.51 0 C15.01 -0.38, 29.11 1.44, 31.53 0 C40.27 2.72, 39.96 5.7, 42.04 10.51 C43.44 17.1, 42.4 27.78, 42.04 41.44 C43.66 50.78, 39.81 53.7, 31.53 51.94 C20.4 52.68, 14.72 50.67, 10.51 51.94 C5.07 51.7, -1.74 51.52, 0 41.44 C0.65 31.76, -0.6 23.49, 0 10.51 C-0.4 0.65, 2.91 1.44, 10.51 0" stroke="none" stroke-width="0" fill="#ffec99"></path><path d="M10.51 0 C14.47 -0.22, 20.19 0.51, 31.53 0 M10.51 0 C16.89 -0.28, 22.33 0.09, 31.53 0 M31.53 0 C39.09 -1.06, 41.7 2.42, 42.04 10.51 M31.53 0 C38.21 -2.19, 40.25 4.74, 42.04 10.51 M42.04 10.51 C42.48 20.6, 42.8 25.73, 42.04 41.44 M42.04 10.51 C41.43 21.04, 42.52 30.16, 42.04 41.44 M42.04 41.44 C43.11 49.24, 37.7 50.24, 31.53 51.94 M42.04 41.44 C41.66 49.61, 37.16 53.57, 31.53 51.94 M31.53 51.94 C25.32 52.02, 22.22 52.22, 10.51 51.94 M31.53 51.94 C27.35 51.2, 22.12 52.07, 10.51 51.94 M10.51 51.94 C3.73 50.12, -0.25 47.47, 0 41.44 M10.51 51.94 C4.75 54.23, 2.13 47.78, 0 41.44 M0 41.44 C-1.34 31.87, 0.07 18.47, 0 10.51 M0 41.44 C0.2 34.4, -0.37 28.72, 0 10.51 M0 10.51 C-1.29 3.01, 2.19 -1.4, 10.51 0 M0 10.51 C0.09 1.45, 2.19 0.87, 10.51 0" stroke="#1e1e1e" stroke-width="0.5" fill="none"></path></g><g transform="translate(771.5621692981749 790.2119527820277) rotate(0 14.509666442871094 18.916047773295347)"><text x="14.509666442871094" y="0" font-family="Virgil, Segoe UI Emoji" font-size="30.26567643727255px" fill="#1e1e1e" text-anchor="middle" style="white-space: pre;" direction="ltr" dominant-baseline="text-before-edge">10</text></g><g stroke-linecap="round" transform="translate(763.5526212924624 834.1992518970092) rotate(0 23.26975047146584 25.221424520201673)"><path d="M11.63 0 C20.59 -3.51, 23.81 -2.68, 34.9 0 C42.52 -1.27, 48.16 6.22, 46.54 11.63 C48.36 22.48, 43.58 30.43, 46.54 38.81 C45.59 45.11, 44.23 50.2, 34.9 50.44 C32.04 48.95, 24.31 49.13, 11.63 50.44 C3.74 49.45, -0.4 43.72, 0 38.81 C2.42 28.74, -0.01 25.63, 0 11.63 C3.38 6.67, 3.7 0.33, 11.63 0" stroke="none" stroke-width="0" fill="#ffec99"></path><path d="M11.63 0 C21.44 0.4, 28.07 -1.02, 34.9 0 M11.63 0 C17.28 -0.74, 25.37 -0.33, 34.9 0 M34.9 0 C44.47 1.74, 46.7 5.81, 46.54 11.63 M34.9 0 C43.22 -1.26, 46.76 2.91, 46.54 11.63 M46.54 11.63 C47.63 21.18, 47.48 29.47, 46.54 38.81 M46.54 11.63 C46.82 18.06, 47.01 25.32, 46.54 38.81 M46.54 38.81 C48.03 45.33, 42.02 50.64, 34.9 50.44 M46.54 38.81 C48.64 47.03, 41.38 50.91, 34.9 50.44 M34.9 50.44 C29.23 50.44, 20.32 48.43, 11.63 50.44 M34.9 50.44 C29.2 51.49, 21.23 51.06, 11.63 50.44 M11.63 50.44 C3.36 51.61, -1.42 47.8, 0 38.81 M11.63 50.44 C3.87 48.89, -1.81 48.75, 0 38.81 M0 38.81 C-0.29 34.55, -1.42 25.95, 0 11.63 M0 38.81 C-0.7 31.87, 0.57 26.64, 0 11.63 M0 11.63 C0.54 3.43, 2.21 -0.26, 11.63 0 M0 11.63 C2.3 4.75, 4.99 1.74, 11.63 0" stroke="#1e1e1e" stroke-width="0.5" fill="none"></path></g><g transform="translate(772.4186165759402 840.5046286439155) rotate(0 14.403755187988281 18.916047773295347)"><text x="14.403755187988281" y="0" font-family="Virgil, Segoe UI Emoji" font-size="30.26567643727255px" fill="#1e1e1e" text-anchor="middle" style="white-space: pre;" direction="ltr" dominant-baseline="text-before-edge">13</text></g><g stroke-linecap="round" transform="translate(674.377159928059 305.05038154989325) rotate(0 23.26975047146584 25.22142452020165)"><path d="M11.63 0 C18.49 2, 26.94 -0.9, 34.9 0 C45.97 2.82, 43.3 6.34, 46.54 11.63 C45.05 22.29, 49.09 31.77, 46.54 38.81 C47.04 44.08, 39.47 53.32, 34.9 50.44 C26.32 50.96, 20.97 50.08, 11.63 50.44 C6.62 47.42, 3.28 48.32, 0 38.81 C-2.59 33.11, 2.24 20.33, 0 11.63 C-2.53 2.48, 6.61 -1.35, 11.63 0" stroke="none" stroke-width="0" fill="#b2f2bb"></path><path d="M11.63 0 C16.21 -0.14, 22.75 0.63, 34.9 0 M11.63 0 C20.75 0.7, 30.04 -0.07, 34.9 0 M34.9 0 C43.74 -1.78, 47.15 4.07, 46.54 11.63 M34.9 0 C42.91 0, 47.23 4.45, 46.54 11.63 M46.54 11.63 C46.76 20.76, 46.15 30.55, 46.54 38.81 M46.54 11.63 C46.15 18.63, 45.59 26.3, 46.54 38.81 M46.54 38.81 C45.46 48.49, 41.09 50.41, 34.9 50.44 M46.54 38.81 C47.19 47.94, 40.59 52.32, 34.9 50.44 M34.9 50.44 C24.1 51.38, 16.94 51.33, 11.63 50.44 M34.9 50.44 C28.7 49.91, 21.99 51.46, 11.63 50.44 M11.63 50.44 C3.71 51.56, 0.38 46.49, 0 38.81 M11.63 50.44 C4.55 48.79, -1.82 46.93, 0 38.81 M0 38.81 C-0.88 34.55, 1.33 26.73, 0 11.63 M0 38.81 C-0.42 30.83, 0.59 21.7, 0 11.63 M0 11.63 C-1.88 5.63, 5.4 1.87, 11.63 0 M0 11.63 C0.44 2.12, 4.7 -2.14, 11.63 0" stroke="#1e1e1e" stroke-width="0.5" fill="none"></path></g><g transform="translate(686.0724627676891 311.35575829679954) rotate(0 11.574447631835938 18.91604777329536)"><text x="11.574447631835938" y="0" font-family="Virgil, Segoe UI Emoji" font-size="30.26567643727255px" fill="#1e1e1e" text-anchor="middle" style="white-space: pre;" direction="ltr" dominant-baseline="text-before-edge">8</text></g><g stroke-linecap="round" transform="translate(672.7757525168199 1017.6549081514121) rotate(0 23.26975047146584 25.221424520201673)"><path d="M11.63 0 C13.11 -3.96, 20.39 -0.31, 34.9 0 C45.68 -1.05, 47.04 1.4, 46.54 11.63 C43.93 14.66, 45.9 23.95, 46.54 38.81 C47.73 46.52, 45.41 47.42, 34.9 50.44 C25.83 48.24, 14.12 53.22, 11.63 50.44 C6.12 48.83, -2.53 45.17, 0 38.81 C1.62 25.19, -2.91 20.75, 0 11.63 C2.61 4, 3.88 2.93, 11.63 0" stroke="none" stroke-width="0" fill="#ffc9c9"></path><path d="M11.63 0 C20.41 -0.19, 27.86 -1.95, 34.9 0 M11.63 0 C19.33 0.28, 27.27 0.59, 34.9 0 M34.9 0 C44.48 0.72, 46.51 3.18, 46.54 11.63 M34.9 0 C41.93 -0.84, 45.85 3.19, 46.54 11.63 M46.54 11.63 C44.72 18.44, 45.38 27.25, 46.54 38.81 M46.54 11.63 C47.13 16.76, 47.35 24.56, 46.54 38.81 M46.54 38.81 C47.33 48.23, 40.88 51.18, 34.9 50.44 M46.54 38.81 C46.65 47.36, 42.36 48.73, 34.9 50.44 M34.9 50.44 C28.54 52.29, 20.27 51.43, 11.63 50.44 M34.9 50.44 C26.76 49.72, 20.21 49.61, 11.63 50.44 M11.63 50.44 C3.99 49.54, -0.87 48.02, 0 38.81 M11.63 50.44 C5.43 49.69, 0.1 45.31, 0 38.81 M0 38.81 C1.04 31.42, -1.73 28.11, 0 11.63 M0 38.81 C-1.02 28.94, -1.19 19.22, 0 11.63 M0 11.63 C1.3 2.03, 2.7 0.9, 11.63 0 M0 11.63 C-1.68 3.06, 5.99 1.8, 11.63 0" stroke="#1e1e1e" stroke-width="0.5" fill="none"></path></g><g transform="translate(686.3623059668016 1023.9602848983184) rotate(0 9.683197021484375 18.91604777329534)"><text x="9.683197021484375" y="0" font-family="Virgil, Segoe UI Emoji" font-size="30.26567643727255px" fill="#1e1e1e" text-anchor="middle" style="white-space: pre;" direction="ltr" dominant-baseline="text-before-edge">6</text></g><g stroke-linecap="round" transform="translate(709.2067815134233 965.2104647818074) rotate(0 23.26975047146584 25.221424520201673)"><path d="M11.63 0 C21.81 1.27, 23.24 -2.35, 34.9 0 C41.63 0.83, 47.73 3.83, 46.54 11.63 C47.88 22.23, 46.15 29.84, 46.54 38.81 C43.95 49.3, 44.9 48.83, 34.9 50.44 C28.21 53.84, 25.65 47.35, 11.63 50.44 C0.78 52.82, 2.61 46.69, 0 38.81 C-3.55 28.75, -1.1 21.36, 0 11.63 C-1.34 0.91, 2.13 -0.69, 11.63 0" stroke="none" stroke-width="0" fill="#ffc9c9"></path><path d="M11.63 0 C19.36 1.16, 27.92 0.65, 34.9 0 M11.63 0 C18.22 -0.22, 25.23 -0.41, 34.9 0 M34.9 0 C42.04 -0.69, 44.81 3.84, 46.54 11.63 M34.9 0 C41.42 2.22, 44.74 3.85, 46.54 11.63 M46.54 11.63 C48.34 22.32, 47.49 31.14, 46.54 38.81 M46.54 11.63 C46.99 17.24, 45.9 23.22, 46.54 38.81 M46.54 38.81 C47.47 45.45, 43.53 52.42, 34.9 50.44 M46.54 38.81 C46.34 47.84, 43.1 50.35, 34.9 50.44 M34.9 50.44 C27.56 48.46, 19.69 49.35, 11.63 50.44 M34.9 50.44 C28.6 50.64, 22.41 49.89, 11.63 50.44 M11.63 50.44 C2.73 51.02, 0.89 45.41, 0 38.81 M11.63 50.44 C1.71 52.46, 1.75 48.72, 0 38.81 M0 38.81 C-1.65 31.84, 1.51 19.61, 0 11.63 M0 38.81 C-0.48 33.17, 0.66 24.79, 0 11.63 M0 11.63 C1.37 5.67, 1.98 -1.99, 11.63 0 M0 11.63 C-0.65 3.92, 5.81 -0.67, 11.63 0" stroke="#1e1e1e" stroke-width="0.5" fill="none"></path></g><g transform="translate(722.1730041528581 971.5158415287137) rotate(0 10.30352783203125 18.916047773295343)"><text x="10.30352783203125" y="0" font-family="Virgil, Segoe UI Emoji" font-size="30.26567643727255px" fill="#1e1e1e" text-anchor="middle" style="white-space: pre;" direction="ltr" dominant-baseline="text-before-edge">3</text></g><g stroke-linecap="round" transform="translate(737.2305315575877 411.1403788258144) rotate(0 23.26975047146584 25.22142452020165)"><path d="M11.63 0 C16.36 2.96, 28.89 0.05, 34.9 0 C42.68 -2.24, 43.95 6.61, 46.54 11.63 C44.92 24.21, 44.97 34.4, 46.54 38.81 C47.98 43.16, 39.56 52.82, 34.9 50.44 C29.16 47.01, 14.41 48.54, 11.63 50.44 C3.17 49.3, -1.34 43.59, 0 38.81 C0.43 32.75, 1.77 23.65, 0 11.63 C-1.54 2.32, 2.26 0.39, 11.63 0" stroke="none" stroke-width="0" fill="#b2f2bb"></path><path d="M11.63 0 C17.28 -0.89, 23.5 -0.62, 34.9 0 M11.63 0 C17.56 -0.66, 21.55 0.41, 34.9 0 M34.9 0 C43.86 -1.8, 48.17 5.64, 46.54 11.63 M34.9 0 C43.57 1.91, 44.5 4.73, 46.54 11.63 M46.54 11.63 C45.15 20.13, 47.57 27.08, 46.54 38.81 M46.54 11.63 C47.36 21.16, 46.77 30.59, 46.54 38.81 M46.54 38.81 C45.1 44.98, 42.98 48.65, 34.9 50.44 M46.54 38.81 C46.67 45.52, 41.67 52.12, 34.9 50.44 M34.9 50.44 C25.26 49.04, 16.66 51.03, 11.63 50.44 M34.9 50.44 C27.77 50.99, 19.81 50.42, 11.63 50.44 M11.63 50.44 C2.35 51.16, -1.86 48.27, 0 38.81 M11.63 50.44 C5.38 48.31, -1.35 47.6, 0 38.81 M0 38.81 C1.67 30.84, 1.47 28.26, 0 11.63 M0 38.81 C0.29 34.07, -0.02 27.79, 0 11.63 M0 11.63 C-1.38 2.11, 5.47 0.5, 11.63 0 M0 11.63 C-1.92 2.14, 3.22 0.53, 11.63 0" stroke="#1e1e1e" stroke-width="0.5" fill="none"></path></g><g transform="translate(749.7277219094249 417.4457555727207) rotate(0 10.772560119628906 18.91604777329536)"><text x="10.772560119628906" y="0" font-family="Virgil, Segoe UI Emoji" font-size="30.26567643727255px" fill="#1e1e1e" text-anchor="middle" style="white-space: pre;" direction="ltr" dominant-baseline="text-before-edge">2</text></g><g stroke-linecap="round" transform="translate(698.3976113572544 358.2955286251174) rotate(0 23.26975047146584 25.22142452020165)"><path d="M11.63 0 C21.92 2.97, 27.59 0.36, 34.9 0 C45.59 -3.43, 43.38 1.97, 46.54 11.63 C43.41 17.51, 45.7 25.98, 46.54 38.81 C46.88 47.34, 44.34 48.95, 34.9 50.44 C29.31 51.37, 21.57 53.19, 11.63 50.44 C4.59 48.17, -0.63 49.73, 0 38.81 C1.19 31.75, 2.15 22.44, 0 11.63 C0.58 3.66, 1.94 -1.4, 11.63 0" stroke="none" stroke-width="0" fill="#b2f2bb"></path><path d="M11.63 0 C20.28 0.3, 28.13 -0.06, 34.9 0 M11.63 0 C16.33 0.33, 23.12 -0.19, 34.9 0 M34.9 0 C43.77 0.38, 46.46 4.46, 46.54 11.63 M34.9 0 C41.01 -1.82, 46.9 1.81, 46.54 11.63 M46.54 11.63 C47.87 21.29, 45.76 28.33, 46.54 38.81 M46.54 11.63 C46.64 18.74, 45.77 24.02, 46.54 38.81 M46.54 38.81 C48.3 48.09, 44.53 50.83, 34.9 50.44 M46.54 38.81 C44.78 47.39, 40.52 52.4, 34.9 50.44 M34.9 50.44 C27.3 48.85, 17.19 52.14, 11.63 50.44 M34.9 50.44 C26.99 49.66, 16.3 50.32, 11.63 50.44 M11.63 50.44 C3.91 52.12, -0.58 46.84, 0 38.81 M11.63 50.44 C2.29 48.4, 1.84 47.14, 0 38.81 M0 38.81 C0.67 33.58, 0.18 28.56, 0 11.63 M0 38.81 C-0.14 32.94, -0.87 26.34, 0 11.63 M0 11.63 C1.52 5.12, 2.98 -1.4, 11.63 0 M0 11.63 C-0.89 5.62, 3.02 1.97, 11.63 0" stroke="#1e1e1e" stroke-width="0.5" fill="none"></path></g><g transform="translate(712.31702766124 364.6009053720237) rotate(0 9.350334167480469 18.91604777329536)"><text x="9.350334167480469" y="0" font-family="Virgil, Segoe UI Emoji" font-size="30.26567643727255px" fill="#1e1e1e" text-anchor="middle" style="white-space: pre;" direction="ltr" dominant-baseline="text-before-edge">5</text></g><g stroke-linecap="round" transform="translate(642.3498913557969 263.8153502327018) rotate(0 23.26975047146584 25.22142452020165)"><path d="M11.63 0 C17.34 -1.73, 24.48 -1.81, 34.9 0 C43.05 1.12, 45.18 6.82, 46.54 11.63 C49.4 18.94, 43.23 29.06, 46.54 38.81 C47.32 46.62, 44.4 48.29, 34.9 50.44 C26.15 49.87, 19.58 52.36, 11.63 50.44 C2.62 48.65, -3.58 45.64, 0 38.81 C-3.57 28.83, 2.34 21.08, 0 11.63 C1.13 6.16, 3.3 -0.44, 11.63 0" stroke="none" stroke-width="0" fill="#b2f2bb"></path><path d="M11.63 0 C15.15 0.08, 21.35 -0.9, 34.9 0 M11.63 0 C20.35 -0.47, 28.28 -0.5, 34.9 0 M34.9 0 C43.24 0.89, 45.38 2, 46.54 11.63 M34.9 0 C44.68 1.75, 48.69 4.32, 46.54 11.63 M46.54 11.63 C48.34 19.02, 44.79 22.62, 46.54 38.81 M46.54 11.63 C47.26 21.79, 45.44 31.06, 46.54 38.81 M46.54 38.81 C48.33 44.67, 40.67 49.87, 34.9 50.44 M46.54 38.81 C46.58 48.49, 41.99 50.76, 34.9 50.44 M34.9 50.44 C30.02 48.96, 22.64 50.06, 11.63 50.44 M34.9 50.44 C28.15 49.6, 20.78 50.93, 11.63 50.44 M11.63 50.44 C4.09 50.46, -1.25 45.13, 0 38.81 M11.63 50.44 C5.63 51.88, -1.03 44.95, 0 38.81 M0 38.81 C1.5 32.51, -2.1 22.89, 0 11.63 M0 38.81 C-0.2 29.68, -1.15 18.04, 0 11.63 M0 11.63 C-1.06 3.49, 3.24 -0.74, 11.63 0 M0 11.63 C-1.9 2.76, 3.44 -0.57, 11.63 0" stroke="#1e1e1e" stroke-width="0.5" fill="none"></path></g><g transform="translate(657.4191871153489 270.1207269796081) rotate(0 8.200454711914062 18.91604777329536)"><text x="8.200454711914062" y="0" font-family="Virgil, Segoe UI Emoji" font-size="30.26567643727255px" fill="#1e1e1e" text-anchor="middle" style="white-space: pre;" direction="ltr" dominant-baseline="text-before-edge">11</text></g><g stroke-linecap="round" transform="translate(639.9480001520687 1068.4981640229075) rotate(0 23.26975047146584 25.221424520201673)"><path d="M11.63 0 C15.46 -0.71, 27.01 -1.47, 34.9 0 C39.66 0.04, 47.32 3.93, 46.54 11.63 C46.03 19.16, 44.85 30.23, 46.54 38.81 C45.92 48.71, 41.4 48.65, 34.9 50.44 C33.36 53.29, 22.43 51.46, 11.63 50.44 C6.64 53.96, 1.13 48.84, 0 38.81 C3.1 29.54, 1.06 20.58, 0 11.63 C-0.84 1.38, 7.31 -0.4, 11.63 0" stroke="none" stroke-width="0" fill="#ffc9c9"></path><path d="M11.63 0 C16.43 -1.02, 24.64 1.01, 34.9 0 M11.63 0 C18.03 0.73, 23.09 -0.97, 34.9 0 M34.9 0 C43.38 -1.86, 48.24 5.18, 46.54 11.63 M34.9 0 C40.53 -1.35, 47.57 2.2, 46.54 11.63 M46.54 11.63 C44.99 20.19, 48.58 24.1, 46.54 38.81 M46.54 11.63 C47.3 16.79, 46.6 21.84, 46.54 38.81 M46.54 38.81 C44.77 48.16, 43.16 48.77, 34.9 50.44 M46.54 38.81 C44.8 45.91, 43.19 51.2, 34.9 50.44 M34.9 50.44 C29.78 51.22, 21.21 50.26, 11.63 50.44 M34.9 50.44 C30 50.17, 23.14 50.23, 11.63 50.44 M11.63 50.44 C5.4 49.69, 1.71 47.37, 0 38.81 M11.63 50.44 C1.7 48.46, 1.52 48.23, 0 38.81 M0 38.81 C-1.91 28.81, -1.06 21.92, 0 11.63 M0 38.81 C-0.38 31.33, -0.15 24.33, 0 11.63 M0 11.63 C0.43 4.81, 3.05 -0.85, 11.63 0 M0 11.63 C-1 2.84, 4.13 0.71, 11.63 0" stroke="#1e1e1e" stroke-width="0.5" fill="none"></path></g><g transform="translate(654.0035858896481 1074.803540769814) rotate(0 9.214164733886719 18.91604777329534)"><text x="9.214164733886719" y="0" font-family="Virgil, Segoe UI Emoji" font-size="30.26567643727255px" fill="#1e1e1e" text-anchor="middle" style="white-space: pre;" direction="ltr" dominant-baseline="text-before-edge">9</text></g><g stroke-linecap="round" transform="translate(614.7263832078788 214.973798646972) rotate(0 23.26975047146584 25.22142452020165)"><path d="M11.63 0 C15.87 -2.65, 25.32 -1.9, 34.9 0 C44.28 -1.04, 44.69 6.56, 46.54 11.63 C43.35 21.14, 47.17 27.68, 46.54 38.81 C43.18 48.47, 39.3 47.24, 34.9 50.44 C24.27 53.42, 17.19 48.43, 11.63 50.44 C4.87 53.56, 0.52 45.72, 0 38.81 C-0.91 30.83, 1.56 20.86, 0 11.63 C-2.74 4.38, 2.11 3.08, 11.63 0" stroke="none" stroke-width="0" fill="#b2f2bb"></path><path d="M11.63 0 C19.28 1.79, 24.65 -1.69, 34.9 0 M11.63 0 C19.34 0.41, 26.26 -0.35, 34.9 0 M34.9 0 C41.16 1.69, 45.68 4.43, 46.54 11.63 M34.9 0 C40.87 -0.54, 44.95 6.07, 46.54 11.63 M46.54 11.63 C45.63 20.01, 45.56 26.34, 46.54 38.81 M46.54 11.63 C47.43 18.78, 47.45 25.79, 46.54 38.81 M46.54 38.81 C47.4 46.93, 40.98 50.42, 34.9 50.44 M46.54 38.81 C45.48 46.8, 44.25 48.61, 34.9 50.44 M34.9 50.44 C29.94 49.72, 21.68 51.39, 11.63 50.44 M34.9 50.44 C25.39 51.12, 16.69 51.29, 11.63 50.44 M11.63 50.44 C5.87 51.39, -0.76 46.84, 0 38.81 M11.63 50.44 C3.11 48.7, -1.55 48.86, 0 38.81 M0 38.81 C1.71 29.7, -0.43 19.35, 0 11.63 M0 38.81 C-0.32 29.15, -0.23 21.09, 0 11.63 M0 11.63 C0.14 2.68, 3.72 -0.01, 11.63 0 M0 11.63 C1.81 2.06, 3.77 -1.72, 11.63 0" stroke="#1e1e1e" stroke-width="0.5" fill="none"></path></g><g transform="translate(624.2127093019035 221.2791753938783) rotate(0 13.783424377441406 18.91604777329536)"><text x="13.783424377441406" y="0" font-family="Virgil, Segoe UI Emoji" font-size="30.26567643727255px" fill="#1e1e1e" text-anchor="middle" style="white-space: pre;" direction="ltr" dominant-baseline="text-before-edge">14</text></g><g stroke-linecap="round" transform="translate(606.319544081698 1110.133437236344) rotate(0 23.26975047146584 25.22142452020168)"><path d="M11.63 0 C15.34 -2.79, 20.86 2.47, 34.9 0 C41.31 3.08, 47.98 0.47, 46.54 11.63 C46.99 17.45, 49.79 19.83, 46.54 38.81 C43.38 44.66, 41.96 49.3, 34.9 50.44 C28.1 49.35, 23.01 51.01, 11.63 50.44 C5.56 48.95, -1.54 45, 0 38.81 C-1.41 34.82, 0.66 22.67, 0 11.63 C-0.63 7.05, 2.49 -3, 11.63 0" stroke="none" stroke-width="0" fill="#ffc9c9"></path><path d="M11.63 0 C17.33 0.75, 24.28 -1.62, 34.9 0 M11.63 0 C21.35 -0.98, 29.77 -0.05, 34.9 0 M34.9 0 C43.35 -0.26, 45.05 4.09, 46.54 11.63 M34.9 0 C43.74 -1.28, 47.54 6.15, 46.54 11.63 M46.54 11.63 C46.61 20.14, 45.25 25.89, 46.54 38.81 M46.54 11.63 C45.84 19.78, 47.02 29.47, 46.54 38.81 M46.54 38.81 C45.88 46.65, 41.57 49.03, 34.9 50.44 M46.54 38.81 C45.22 47.23, 43.68 49.11, 34.9 50.44 M34.9 50.44 C31.99 51.01, 23.8 51.34, 11.63 50.44 M34.9 50.44 C29.16 50.01, 25.72 49.87, 11.63 50.44 M11.63 50.44 C3.16 52.28, 1.57 44.77, 0 38.81 M11.63 50.44 C5.45 52.51, -2.18 44.28, 0 38.81 M0 38.81 C-0.59 31.71, -1.38 22.27, 0 11.63 M0 38.81 C-0.82 28.2, 0.16 18.5, 0 11.63 M0 11.63 C-0.03 5.4, 2.2 1.82, 11.63 0 M0 11.63 C1.12 4.12, 3.89 -1.43, 11.63 0" stroke="#1e1e1e" stroke-width="0.5" fill="none"></path></g><g transform="translate(614.7165070775782 1116.4388139832502) rotate(0 14.872787475585938 18.91604777329534)"><text x="14.872787475585938" y="0" font-family="Virgil, Segoe UI Emoji" font-size="30.26567643727255px" fill="#1e1e1e" text-anchor="middle" style="white-space: pre;" direction="ltr" dominant-baseline="text-before-edge">12</text></g><g stroke-linecap="round" transform="translate(573.8918137000619 1146.9647081291926) rotate(0 23.26975047146584 25.22142452020168)"><path d="M11.63 0 C15.43 -1.26, 18.54 -1.67, 34.9 0 C41.98 -0.89, 46.88 4.65, 46.54 11.63 C44.78 19.44, 46.73 31.59, 46.54 38.81 C45.18 49.5, 43.38 48.17, 34.9 50.44 C25.33 50.32, 22.53 50.33, 11.63 50.44 C5.62 48.29, 0.58 46.35, 0 38.81 C-0.43 34.26, -1.07 23.64, 0 11.63 C-3.58 2.96, 7.15 3.12, 11.63 0" stroke="none" stroke-width="0" fill="#ffc9c9"></path><path d="M11.63 0 C21.68 -0.27, 28.89 0.28, 34.9 0 M11.63 0 C17.73 0.32, 24.51 0.22, 34.9 0 M34.9 0 C41.75 -0.87, 48 5.23, 46.54 11.63 M34.9 0 C41.9 0.1, 45.28 2.25, 46.54 11.63 M46.54 11.63 C45.46 16.35, 48.37 26.35, 46.54 38.81 M46.54 11.63 C46.95 21.4, 47.44 33.68, 46.54 38.81 M46.54 38.81 C44.69 45.39, 43.56 48.99, 34.9 50.44 M46.54 38.81 C45.72 48.68, 44.47 48.37, 34.9 50.44 M34.9 50.44 C24.34 49.65, 17.79 51.9, 11.63 50.44 M34.9 50.44 C27.71 51.08, 22.55 49.45, 11.63 50.44 M11.63 50.44 C2.37 49.87, 0.46 47.22, 0 38.81 M11.63 50.44 C3.85 52.2, -1.93 48.66, 0 38.81 M0 38.81 C-1.27 27.9, 1.49 21.1, 0 11.63 M0 38.81 C0.95 31.5, 1.05 25.33, 0 11.63 M0 11.63 C-1.89 2.16, 5.2 1.45, 11.63 0 M0 11.63 C0.08 3.88, 5.75 -2.19, 11.63 0" stroke="#1e1e1e" stroke-width="0.5" fill="none"></path></g><g transform="translate(583.7110026480905 1153.270084876099) rotate(0 13.4505615234375 18.916047773295347)"><text x="13.4505615234375" y="0" font-family="Virgil, Segoe UI Emoji" font-size="30.26567643727255px" fill="#1e1e1e" text-anchor="middle" style="white-space: pre;" direction="ltr" dominant-baseline="text-before-edge">15</text></g><g transform="translate(490.27102812483463 10) rotate(0 301.0559387207031 45.93897316371721)"><text x="0" y="0" font-family="Virgil, Segoe UI Emoji" font-size="73.50235706194754px" fill="#1e1e1e" text-anchor="start" style="white-space: pre;" direction="ltr" dominant-baseline="text-before-edge">Kontextdiagramm</text></g></svg>